<svg width="16" height="18" viewBox="0 0 16 18" fill="none" xmlns="http://www.w3.org/2000/svg">
<path d="M13.1849 17.28C12.2259 18.23 11.1788 18.08 10.1709 17.63C9.10419 17.17 8.12559 17.15 7.00021 17.63C5.59104 18.25 4.84731 18.07 4.00572 17.28C-0.769822 12.25 -0.065234 4.59 5.35617 4.31C6.67728 4.38 7.59715 5.05 8.37024 5.11C9.52498 4.87 10.6308 4.18 11.8638 4.27C13.3415 4.39 14.4571 4.99 15.191 6.07C12.1378 7.94 12.862 12.05 15.6608 13.2C15.103 14.7 14.3788 16.19 13.1751 17.29L13.1849 17.28ZM8.27238 4.25C8.12559 2.02 9.89685 0.18 11.9323 0C12.2161 2.58 9.64241 4.5 8.27238 4.25Z" fill="black"/>
</svg>
