<svg width="88" height="20" viewBox="0 0 88 20" fill="none" xmlns="http://www.w3.org/2000/svg">
<rect width="88" height="20" rx="6" fill="#C3E2B0"/>
<path d="M9.58665 6.72727H10.8935V11.8409C10.8911 12.3097 10.7917 12.7133 10.5952 13.0518C10.3987 13.388 10.1241 13.6473 9.77131 13.8295C9.42093 14.0095 9.01255 14.0994 8.54616 14.0994C8.12003 14.0994 7.73651 14.0237 7.3956 13.8722C7.05705 13.7183 6.78835 13.491 6.58949 13.1903C6.39063 12.8897 6.29119 12.5156 6.29119 12.0682H7.60156C7.60393 12.2647 7.64654 12.4339 7.7294 12.576C7.81463 12.718 7.93182 12.8269 8.08097 12.9027C8.23011 12.9785 8.40175 13.0163 8.59588 13.0163C8.80658 13.0163 8.98532 12.9725 9.1321 12.8849C9.27888 12.795 9.39015 12.6624 9.46591 12.4872C9.54403 12.312 9.58428 12.0966 9.58665 11.8409V6.72727ZM14.6808 14.1065C14.1339 14.1065 13.6616 13.9929 13.2638 13.7656C12.8685 13.536 12.5643 13.2116 12.3512 12.7926C12.1381 12.3712 12.0316 11.8752 12.0316 11.3047C12.0316 10.7436 12.1381 10.2512 12.3512 9.82741C12.5666 9.40128 12.8673 9.06984 13.2532 8.8331C13.6391 8.59399 14.0924 8.47443 14.6133 8.47443C14.9495 8.47443 15.2667 8.52888 15.565 8.63778C15.8656 8.74432 16.1308 8.91004 16.3604 9.13494C16.5924 9.35985 16.7747 9.64631 16.9073 9.99432C17.0399 10.34 17.1062 10.7519 17.1062 11.2301V11.6243H12.6353V10.7578H15.8739C15.8716 10.5116 15.8183 10.2926 15.7141 10.1009C15.61 9.90672 15.4644 9.75402 15.2773 9.64276C15.0927 9.53149 14.8772 9.47585 14.631 9.47585C14.3683 9.47585 14.1374 9.53977 13.9386 9.66761C13.7397 9.79309 13.5846 9.95881 13.4734 10.1648C13.3645 10.3684 13.3088 10.5921 13.3065 10.8359V11.5923C13.3065 11.9096 13.3645 12.1818 13.4805 12.4091C13.5965 12.634 13.7586 12.8068 13.967 12.9276C14.1753 13.0459 14.4192 13.1051 14.6985 13.1051C14.8855 13.1051 15.0548 13.0791 15.2063 13.027C15.3578 12.9725 15.4892 12.8932 15.6005 12.7891C15.7118 12.6849 15.7958 12.5559 15.8526 12.402L17.0529 12.5369C16.9772 12.8542 16.8327 13.1312 16.6197 13.3679C16.409 13.6023 16.1391 13.7846 15.81 13.9148C15.4809 14.0426 15.1045 14.1065 14.6808 14.1065ZM20.9174 8.54545V9.53977H17.7818V8.54545H20.9174ZM18.5559 7.23864H19.8414V12.3594C19.8414 12.5322 19.8675 12.6648 19.9196 12.7571C19.974 12.8471 20.045 12.9086 20.1326 12.9418C20.2202 12.9749 20.3173 12.9915 20.4238 12.9915C20.5043 12.9915 20.5777 12.9856 20.644 12.9737C20.7127 12.9619 20.7647 12.9512 20.8002 12.9418L21.0169 13.9467C20.9482 13.9704 20.85 13.9964 20.7221 14.0249C20.5967 14.0533 20.4428 14.0698 20.2605 14.0746C19.9385 14.084 19.6485 14.0355 19.3904 13.929C19.1324 13.8201 18.9276 13.652 18.7761 13.4247C18.627 13.1974 18.5536 12.9134 18.5559 12.5724V7.23864ZM21.9215 14V13.1832L24.734 9.65696V9.6108H22.0138V8.54545H26.3072V9.42259L23.6296 12.8885V12.9347H26.3995V14H21.9215ZM30.3315 8.54545V9.53977H27.1958V8.54545H30.3315ZM27.97 7.23864H29.2555V12.3594C29.2555 12.5322 29.2815 12.6648 29.3336 12.7571C29.3881 12.8471 29.4591 12.9086 29.5467 12.9418C29.6343 12.9749 29.7314 12.9915 29.8379 12.9915C29.9184 12.9915 29.9918 12.9856 30.0581 12.9737C30.1267 12.9619 30.1788 12.9512 30.2143 12.9418L30.4309 13.9467C30.3623 13.9704 30.264 13.9964 30.1362 14.0249C30.0107 14.0533 29.8568 14.0698 29.6745 14.0746C29.3526 14.084 29.0626 14.0355 28.8045 13.929C28.5465 13.8201 28.3417 13.652 28.1902 13.4247C28.041 13.1974 27.9676 12.9134 27.97 12.5724V7.23864ZM38.7592 8.54545L36.8168 14H35.3963L33.4538 8.54545H34.8246L36.0781 12.5973H36.1349L37.392 8.54545H38.7592ZM41.878 14.1065C41.3311 14.1065 40.8588 13.9929 40.4611 13.7656C40.0658 13.536 39.7615 13.2116 39.5485 12.7926C39.3354 12.3712 39.2289 11.8752 39.2289 11.3047C39.2289 10.7436 39.3354 10.2512 39.5485 9.82741C39.7639 9.40128 40.0646 9.06984 40.4505 8.8331C40.8364 8.59399 41.2897 8.47443 41.8105 8.47443C42.1467 8.47443 42.464 8.52888 42.7623 8.63778C43.0629 8.74432 43.3281 8.91004 43.5577 9.13494C43.7897 9.35985 43.972 9.64631 44.1046 9.99432C44.2372 10.34 44.3034 10.7519 44.3034 11.2301V11.6243H39.8326V10.7578H43.0712C43.0688 10.5116 43.0156 10.2926 42.9114 10.1009C42.8072 9.90672 42.6616 9.75402 42.4746 9.64276C42.29 9.53149 42.0745 9.47585 41.8283 9.47585C41.5655 9.47585 41.3347 9.53977 41.1358 9.66761C40.937 9.79309 40.7819 9.95881 40.6706 10.1648C40.5617 10.3684 40.5061 10.5921 40.5037 10.8359V11.5923C40.5037 11.9096 40.5617 12.1818 40.6777 12.4091C40.7937 12.634 40.9559 12.8068 41.1642 12.9276C41.3726 13.0459 41.6164 13.1051 41.8958 13.1051C42.0828 13.1051 42.2521 13.0791 42.4036 13.027C42.5551 12.9725 42.6865 12.8932 42.7978 12.7891C42.909 12.6849 42.9931 12.5559 43.0499 12.402L44.2502 12.5369C44.1744 12.8542 44.03 13.1312 43.8169 13.3679C43.6062 13.6023 43.3364 13.7846 43.0073 13.9148C42.6782 14.0426 42.3018 14.1065 41.878 14.1065ZM45.391 14V8.54545H46.6374V9.45455H46.6942C46.7937 9.13968 46.9641 8.89702 47.2056 8.72656C47.4495 8.55374 47.7276 8.46733 48.0401 8.46733C48.1112 8.46733 48.1905 8.47088 48.2781 8.47798C48.368 8.48272 48.4426 8.491 48.5018 8.50284V9.68537C48.4473 9.66643 48.3609 9.64986 48.2425 9.63565C48.1265 9.61908 48.0141 9.6108 47.9052 9.6108C47.6708 9.6108 47.4601 9.66169 47.2731 9.76349C47.0884 9.86293 46.9428 10.0014 46.8363 10.179C46.7298 10.3565 46.6765 10.5613 46.6765 10.7933V14H45.391ZM52.4116 8.54545V9.53977H49.1871V8.54545H52.4116ZM49.9933 14V8.03054C49.9933 7.66359 50.069 7.35819 50.2205 7.11435C50.3744 6.8705 50.5804 6.68821 50.8384 6.56747C51.0965 6.44673 51.3829 6.38636 51.6978 6.38636C51.9203 6.38636 52.118 6.40412 52.2908 6.43963C52.4637 6.47514 52.5915 6.5071 52.6744 6.53551L52.4187 7.52983C52.3642 7.51326 52.2956 7.49669 52.2127 7.48011C52.1299 7.46117 52.0375 7.4517 51.9357 7.4517C51.6966 7.4517 51.5273 7.50971 51.4279 7.62571C51.3308 7.73935 51.2823 7.9027 51.2823 8.11577V14H49.9933ZM56.8949 11.706V8.54545H58.1804V14H56.9339V13.0305H56.8771C56.754 13.3359 56.5516 13.5857 56.2699 13.7798C55.9905 13.974 55.6461 14.071 55.2365 14.071C54.879 14.071 54.563 13.9917 54.2884 13.8331C54.0161 13.6721 53.803 13.4389 53.6491 13.1335C53.4953 12.8258 53.4183 12.4541 53.4183 12.0185V8.54545H54.7038V11.8196C54.7038 12.1652 54.7985 12.4399 54.9879 12.6435C55.1773 12.8471 55.4259 12.9489 55.7337 12.9489C55.9231 12.9489 56.1065 12.9027 56.2841 12.8104C56.4616 12.718 56.6072 12.5807 56.7209 12.3984C56.8369 12.2138 56.8949 11.983 56.8949 11.706ZM54.7429 7.7429C54.5559 7.7429 54.3937 7.67661 54.2564 7.54403C54.1214 7.41146 54.054 7.25521 54.054 7.07528C54.054 6.88589 54.1214 6.72727 54.2564 6.59943C54.3937 6.46922 54.5559 6.40412 54.7429 6.40412C54.9347 6.40412 55.0956 6.46922 55.2259 6.59943C55.3584 6.72727 55.4247 6.88589 55.4247 7.07528C55.4247 7.25521 55.3584 7.41146 55.2259 7.54403C55.0956 7.67661 54.9347 7.7429 54.7429 7.7429ZM56.8736 7.7429C56.6866 7.7429 56.5244 7.67661 56.3871 7.54403C56.2521 7.41146 56.1847 7.25521 56.1847 7.07528C56.1847 6.88589 56.2521 6.72727 56.3871 6.59943C56.5244 6.46922 56.6866 6.40412 56.8736 6.40412C57.0653 6.40412 57.2263 6.46922 57.3565 6.59943C57.4891 6.72727 57.5554 6.88589 57.5554 7.07528C57.5554 7.25521 57.4891 7.41146 57.3565 7.54403C57.2263 7.67661 57.0653 7.7429 56.8736 7.7429ZM61.8745 16.1591C61.4128 16.1591 61.0163 16.0964 60.6848 15.9709C60.3534 15.8478 60.0871 15.6821 59.8858 15.4737C59.6846 15.2654 59.5449 15.0346 59.4668 14.7812L60.6245 14.5007C60.6766 14.6072 60.7523 14.7126 60.8517 14.8168C60.9512 14.9233 61.0849 15.0109 61.253 15.0795C61.4235 15.1506 61.6377 15.1861 61.8958 15.1861C62.2604 15.1861 62.5622 15.0973 62.8013 14.9197C63.0404 14.7446 63.16 14.4557 63.16 14.0533V13.0199H63.0961C63.0298 13.1525 62.9327 13.2886 62.8049 13.4283C62.6794 13.5679 62.5125 13.6851 62.3042 13.7798C62.0982 13.8745 61.839 13.9219 61.5265 13.9219C61.1074 13.9219 60.7275 13.8236 60.3865 13.6271C60.048 13.4283 59.7781 13.1323 59.5769 12.7393C59.378 12.344 59.2786 11.8492 59.2786 11.255C59.2786 10.656 59.378 10.1506 59.5769 9.73864C59.7781 9.32434 60.0492 9.01065 60.3901 8.79759C60.731 8.58215 61.111 8.47443 61.53 8.47443C61.8496 8.47443 62.1124 8.52888 62.3184 8.63778C62.5267 8.74432 62.6924 8.87334 62.8155 9.02486C62.9386 9.17401 63.0321 9.31487 63.0961 9.44744H63.1671V8.54545H64.4348V14.0888C64.4348 14.5552 64.3236 14.9411 64.101 15.2464C63.8785 15.5518 63.5743 15.7803 63.1884 15.9318C62.8025 16.0833 62.3645 16.1591 61.8745 16.1591ZM61.8851 12.9134C62.1574 12.9134 62.3894 12.8471 62.5811 12.7145C62.7729 12.5819 62.9185 12.3913 63.0179 12.1428C63.1174 11.8942 63.1671 11.5959 63.1671 11.2479C63.1671 10.9046 63.1174 10.6039 63.0179 10.3459C62.9209 10.0878 62.7765 9.88778 62.5847 9.74574C62.3953 9.60133 62.1621 9.52912 61.8851 9.52912C61.5987 9.52912 61.3596 9.60369 61.1678 9.75284C60.976 9.90199 60.8316 10.1068 60.7346 10.3672C60.6375 10.6252 60.589 10.9188 60.589 11.2479C60.589 11.5817 60.6375 11.8741 60.7346 12.125C60.834 12.3736 60.9796 12.5677 61.1713 12.7074C61.3655 12.8447 61.6034 12.9134 61.8851 12.9134ZM65.8091 14V6.72727H67.0946V9.44744H67.1479C67.2142 9.31487 67.3077 9.17401 67.4284 9.02486C67.5492 8.87334 67.7125 8.74432 67.9185 8.63778C68.1245 8.52888 68.3873 8.47443 68.7069 8.47443C69.1283 8.47443 69.5082 8.58215 69.8468 8.79759C70.1877 9.01065 70.4576 9.3267 70.6564 9.74574C70.8577 10.1624 70.9583 10.6738 70.9583 11.2798C70.9583 11.8788 70.86 12.3878 70.6635 12.8068C70.467 13.2259 70.1995 13.5455 69.861 13.7656C69.5224 13.9858 69.1389 14.0959 68.7104 14.0959C68.3979 14.0959 68.1387 14.0438 67.9327 13.9396C67.7267 13.8355 67.561 13.71 67.4355 13.5632C67.3124 13.4141 67.2166 13.2732 67.1479 13.1406H67.0733V14H65.8091ZM67.0698 11.2727C67.0698 11.6255 67.1195 11.9344 67.2189 12.1996C67.3207 12.4647 67.4663 12.6719 67.6557 12.821C67.8475 12.9678 68.0795 13.0412 68.3517 13.0412C68.6358 13.0412 68.8738 12.9654 69.0655 12.8139C69.2573 12.66 69.4017 12.4505 69.4988 12.1854C69.5982 11.9179 69.6479 11.6136 69.6479 11.2727C69.6479 10.9342 69.5994 10.6335 69.5023 10.3707C69.4052 10.108 69.2608 9.90199 69.0691 9.75284C68.8773 9.60369 68.6382 9.52912 68.3517 9.52912C68.0771 9.52912 67.8439 9.60133 67.6522 9.74574C67.4604 9.89015 67.3148 10.0926 67.2154 10.353C67.1183 10.6134 67.0698 10.92 67.0698 11.2727ZM73.6207 14.1101C73.2751 14.1101 72.9638 14.0485 72.6868 13.9254C72.4122 13.8 72.1944 13.6153 72.0334 13.3714C71.8748 13.1276 71.7955 12.8269 71.7955 12.4695C71.7955 12.1617 71.8523 11.9072 71.9659 11.706C72.0795 11.5047 72.2346 11.3438 72.4311 11.223C72.6276 11.1023 72.849 11.0111 73.0952 10.9496C73.3438 10.8857 73.6006 10.8395 73.8658 10.8111C74.1854 10.7779 74.4446 10.7483 74.6435 10.7223C74.8423 10.6939 74.9867 10.6513 75.0767 10.5945C75.169 10.5353 75.2152 10.4441 75.2152 10.321V10.2997C75.2152 10.0322 75.1359 9.82505 74.9773 9.67827C74.8187 9.53149 74.5902 9.4581 74.2919 9.4581C73.977 9.4581 73.7273 9.52675 73.5426 9.66406C73.3603 9.80137 73.2372 9.96354 73.1733 10.1506L71.973 9.98011C72.0677 9.64867 72.224 9.37169 72.4418 9.14915C72.6596 8.92424 72.9259 8.75616 73.2408 8.64489C73.5556 8.53125 73.9036 8.47443 74.2848 8.47443C74.5476 8.47443 74.8092 8.50521 75.0696 8.56676C75.33 8.62831 75.5679 8.73011 75.7834 8.87216C75.9988 9.01184 76.1716 9.20241 76.3018 9.44389C76.4344 9.68537 76.5007 9.98722 76.5007 10.3494V14H75.2649V13.2507H75.2223C75.1442 13.4022 75.0341 13.5443 74.892 13.6768C74.7524 13.8071 74.576 13.9124 74.3629 13.9929C74.1522 14.071 73.9048 14.1101 73.6207 14.1101ZM73.9545 13.1655C74.2126 13.1655 74.4363 13.1146 74.6257 13.0128C74.8151 12.9086 74.9607 12.7713 75.0625 12.6009C75.1667 12.4304 75.2188 12.2446 75.2188 12.0433V11.4006C75.1785 11.4337 75.1098 11.4645 75.0128 11.4929C74.9181 11.5213 74.8116 11.5462 74.6932 11.5675C74.5748 11.5888 74.4576 11.6077 74.3416 11.6243C74.2256 11.6409 74.125 11.6551 74.0398 11.6669C73.848 11.6929 73.6764 11.7356 73.5249 11.7947C73.3733 11.8539 73.2538 11.9368 73.1662 12.0433C73.0786 12.1475 73.0348 12.2824 73.0348 12.4482C73.0348 12.6849 73.1212 12.8636 73.294 12.9844C73.4669 13.1051 73.687 13.1655 73.9545 13.1655ZM77.7933 14V8.54545H79.0398V9.45455H79.0966C79.196 9.13968 79.3665 8.89702 79.608 8.72656C79.8518 8.55374 80.13 8.46733 80.4425 8.46733C80.5135 8.46733 80.5928 8.47088 80.6804 8.47798C80.7704 8.48272 80.8449 8.491 80.9041 8.50284V9.68537C80.8497 9.66643 80.7633 9.64986 80.6449 9.63565C80.5289 9.61908 80.4164 9.6108 80.3075 9.6108C80.0732 9.6108 79.8625 9.66169 79.6754 9.76349C79.4908 9.86293 79.3452 10.0014 79.2386 10.179C79.1321 10.3565 79.0788 10.5613 79.0788 10.7933V14H77.7933Z" fill="#38830A"/>
</svg>
