<svg width="16" height="4" viewBox="0 0 16 4" fill="none" xmlns="http://www.w3.org/2000/svg">
<path d="M-8.74228e-08 2C-6.33815e-08 1.45 0.195833 0.979166 0.5875 0.587499C0.979166 0.195833 1.45 -6.36001e-07 2 -6.11959e-07C2.55 -5.87918e-07 3.02083 0.195833 3.4125 0.587499C3.80417 0.979166 4 1.45 4 2C4 2.55 3.80417 3.02083 3.4125 3.4125C3.02083 3.80417 2.55 4 2 4C1.45 4 0.979166 3.80417 0.587499 3.4125C0.195833 3.02083 -1.11464e-07 2.55 -8.74228e-08 2ZM6 2C6 1.45 6.19583 0.979166 6.5875 0.5875C6.97917 0.195833 7.45 -3.73732e-07 8 -3.49691e-07C8.55 -3.2565e-07 9.02083 0.195833 9.4125 0.5875C9.80417 0.979166 10 1.45 10 2C10 2.55 9.80417 3.02083 9.4125 3.4125C9.02083 3.80417 8.55 4 8 4C7.45 4 6.97917 3.80417 6.5875 3.4125C6.19583 3.02083 6 2.55 6 2ZM12 2C12 1.45 12.1958 0.979167 12.5875 0.5875C12.9792 0.195833 13.45 -1.11464e-07 14 -8.74228e-08C14.55 -6.33815e-08 15.0208 0.195833 15.4125 0.5875C15.8042 0.979167 16 1.45 16 2C16 2.55 15.8042 3.02083 15.4125 3.4125C15.0208 3.80417 14.55 4 14 4C13.45 4 12.9792 3.80417 12.5875 3.4125C12.1958 3.02083 12 2.55 12 2Z" fill="#080808"/>
</svg>
