<svg width="24" height="24" viewBox="0 0 24 24" fill="none" xmlns="http://www.w3.org/2000/svg">
<path d="M15.3232 16.8272L16.8272 15.3232L13.1002 11.5462V6.9002H10.9502V12.4539L15.3232 16.8272ZM12.0019 22.3002C10.5773 22.3002 9.2382 22.0299 7.9847 21.4892C6.7312 20.9485 5.64086 20.2148 4.7137 19.2879C3.78653 18.3611 3.05245 17.2712 2.51145 16.0182C1.97061 14.7652 1.7002 13.4264 1.7002 12.0019C1.7002 10.5729 1.97103 9.22986 2.5127 7.9727C3.05436 6.71553 3.78945 5.62194 4.71795 4.69194C5.64645 3.76195 6.73636 3.03078 7.9877 2.49845C9.23886 1.96628 10.5758 1.7002 11.9984 1.7002C13.4273 1.7002 14.7702 1.96619 16.0272 2.49819C17.2844 3.03019 18.378 3.76111 19.3082 4.69095C20.2384 5.62078 20.9696 6.7142 21.5019 7.9712C22.0341 9.2282 22.3002 10.5714 22.3002 12.0007C22.3002 13.4299 22.0342 14.7684 21.5022 16.0162C20.9702 17.264 20.2394 18.3524 19.3097 19.2812C18.38 20.21 17.2869 20.9454 16.0302 21.4874C14.7735 22.0293 13.4308 22.3002 12.0019 22.3002ZM12.0002 20.1502C14.2669 20.1502 16.1919 19.3585 17.7752 17.7752C19.3585 16.1919 20.1502 14.2669 20.1502 12.0002C20.1502 9.73353 19.3585 7.80853 17.7752 6.2252C16.1919 4.64186 14.2669 3.8502 12.0002 3.8502C9.73353 3.8502 7.80853 4.64186 6.2252 6.2252C4.64186 7.80853 3.8502 9.73353 3.8502 12.0002C3.8502 14.2669 4.64186 16.1919 6.2252 17.7752C7.80853 19.3585 9.73353 20.1502 12.0002 20.1502Z" fill="black"/>
</svg>
