<svg width="20" height="24" viewBox="0 0 20 24" fill="none" xmlns="http://www.w3.org/2000/svg">
<path d="M9.03529 24C8.41412 24 7.88235 23.765 7.44 23.295C6.99765 22.825 6.77647 22.26 6.77647 21.6H11.2941C11.2941 22.26 11.0729 22.825 10.6306 23.295C10.1882 23.765 9.65647 24 9.03529 24ZM0 20.4V18H2.25882V9.6C2.25882 7.94 2.72941 6.465 3.67059 5.175C4.61176 3.885 5.83529 3.04 7.34118 2.64V1.8C7.34118 1.3 7.50588 0.875 7.83529 0.525C8.16471 0.175 8.56471 0 9.03529 0C9.50588 0 9.90588 0.175 10.2353 0.525C10.5647 0.875 10.7294 1.3 10.7294 1.8V2.64C10.9365 2.7 11.1388 2.765 11.3365 2.835C11.5341 2.905 11.7271 2.99 11.9153 3.09L10.1365 4.95C9.94824 4.91 9.76941 4.875 9.6 4.845C9.43059 4.815 9.24235 4.8 9.03529 4.8C7.79294 4.8 6.72941 5.27 5.84471 6.21C4.96 7.15 4.51765 8.28 4.51765 9.6V18H13.5529V15.48L15.8118 13.08V18H18.0706V20.4H0ZM9.03529 13.2V9.51L15.2753 2.91C15.4447 2.73 15.6329 2.6 15.84 2.52C16.0471 2.44 16.2541 2.4 16.4612 2.4C16.6871 2.4 16.9035 2.445 17.1106 2.535C17.3176 2.625 17.5059 2.76 17.6753 2.94L18.72 4.05C18.8706 4.23 18.9882 4.43 19.0729 4.65C19.1576 4.87 19.2 5.09 19.2 5.31C19.2 5.53 19.1624 5.755 19.0871 5.985C19.0118 6.215 18.8894 6.42 18.72 6.6L12.5082 13.2H9.03529ZM10.7294 11.4H11.8024L15.2188 7.74L14.7106 7.17L14.1741 6.63L10.7294 10.26V11.4ZM14.7106 7.17L14.1741 6.63L15.2188 7.74L14.7106 7.17Z" fill="#1461F0"/>
</svg>
