<svg width="24" height="24" viewBox="0 0 24 24" fill="none" xmlns="http://www.w3.org/2000/svg">
<path d="M22 7.5V16.75C22.0001 17.58 21.6826 18.3785 21.1127 18.9819C20.5428 19.5853 19.7636 19.9478 18.935 19.995L18.75 20H5.25C4.41986 20.0001 3.62117 19.6824 3.01777 19.1123C2.41437 18.5422 2.052 17.7628 2.005 16.934L2 16.75V7.5L11.652 12.556C11.7594 12.6122 11.8788 12.6416 12 12.6416C12.1212 12.6416 12.2406 12.6122 12.348 12.556L22 7.5Z" fill="#367AF2"/>
<path d="M22 7.5V16.75C22.0001 17.58 21.6826 18.3785 21.1127 18.9819C20.5428 19.5853 19.7636 19.9478 18.935 19.995L18.75 20H5.25C4.41986 20.0001 3.62117 19.6824 3.01777 19.1123C2.41437 18.5422 2.052 17.7628 2.005 16.934L2 16.75V7.5L11.652 12.556C11.7594 12.6122 11.8788 12.6416 12 12.6416C12.1212 12.6416 12.2406 12.6122 12.348 12.556L22 7.5Z" fill="url(#paint0_linear_415_3559)"/>
<path d="M22 7.5V16.75C22.0001 17.58 21.6826 18.3785 21.1127 18.9819C20.5428 19.5853 19.7636 19.9478 18.935 19.995L18.75 20H5.25C4.41986 20.0001 3.62117 19.6824 3.01777 19.1123C2.41437 18.5422 2.052 17.7628 2.005 16.934L2 16.75V7.5L11.652 12.556C11.7594 12.6122 11.8788 12.6416 12 12.6416C12.1212 12.6416 12.2406 12.6122 12.348 12.556L22 7.5Z" fill="url(#paint1_linear_415_3559)"/>
<path d="M22 7.5V16.75C22.0001 17.58 21.6826 18.3785 21.1127 18.9819C20.5428 19.5853 19.7636 19.9478 18.935 19.995L18.75 20H5.25C4.41986 20.0001 3.62117 19.6824 3.01777 19.1123C2.41437 18.5422 2.052 17.7628 2.005 16.934L2 16.75V7.5L11.652 12.556C11.7594 12.6122 11.8788 12.6416 12 12.6416C12.1212 12.6416 12.2406 12.6122 12.348 12.556L22 7.5Z" fill="url(#paint2_linear_415_3559)" fill-opacity="0.75"/>
<path d="M22 7.5V16.75C22.0001 17.58 21.6826 18.3785 21.1127 18.9819C20.5428 19.5853 19.7636 19.9478 18.935 19.995L18.75 20H5.25C4.41986 20.0001 3.62117 19.6824 3.01777 19.1123C2.41437 18.5422 2.052 17.7628 2.005 16.934L2 16.75V7.5L11.652 12.556C11.7594 12.6122 11.8788 12.6416 12 12.6416C12.1212 12.6416 12.2406 12.6122 12.348 12.556L22 7.5Z" fill="url(#paint3_linear_415_3559)" fill-opacity="0.7"/>
<path d="M2 7.86L11.652 12.916C11.7594 12.9722 11.8788 13.0016 12 13.0016C12.1212 13.0016 12.2406 12.9722 12.348 12.916L22 7.86V7.25C22 6.8232 21.9159 6.40059 21.7526 6.00628C21.5893 5.61197 21.3499 5.25369 21.0481 4.9519C20.7463 4.65011 20.388 4.41072 19.9937 4.24739C19.5994 4.08406 19.1768 4 18.75 4H5.25C4.38805 4 3.5614 4.34241 2.9519 4.9519C2.34241 5.5614 2 6.38805 2 7.25V7.86Z" fill="url(#paint4_linear_415_3559)"/>
<defs>
<linearGradient id="paint0_linear_415_3559" x1="14.539" y1="9.95" x2="20.005" y2="20.515" gradientUnits="userSpaceOnUse">
<stop offset="0.199" stop-color="#0094F0" stop-opacity="0"/>
<stop offset="0.431" stop-color="#0094F0"/>
</linearGradient>
<linearGradient id="paint1_linear_415_3559" x1="9.143" y1="8.816" x2="3.828" y2="20.865" gradientUnits="userSpaceOnUse">
<stop offset="0.191" stop-color="#0094F0" stop-opacity="0"/>
<stop offset="0.431" stop-color="#0094F0"/>
</linearGradient>
<linearGradient id="paint2_linear_415_3559" x1="17.273" y1="14.957" x2="18.143" y2="21.151" gradientUnits="userSpaceOnUse">
<stop stop-color="#2764E7" stop-opacity="0"/>
<stop offset="1" stop-color="#2764E7"/>
</linearGradient>
<linearGradient id="paint3_linear_415_3559" x1="15.095" y1="9.035" x2="16.681" y2="21.643" gradientUnits="userSpaceOnUse">
<stop offset="0.533" stop-color="#FF6CE8" stop-opacity="0"/>
<stop offset="1" stop-color="#FF6CE8"/>
</linearGradient>
<linearGradient id="paint4_linear_415_3559" x1="7.942" y1="1.151" x2="13.98" y2="17.089" gradientUnits="userSpaceOnUse">
<stop stop-color="#6CE0FF"/>
<stop offset="0.462" stop-color="#29C3FF"/>
<stop offset="1" stop-color="#4894FE"/>
</linearGradient>
</defs>
</svg>
