<svg width="84" height="16" viewBox="0 0 84 16" fill="none" xmlns="http://www.w3.org/2000/svg">
<path d="M7.55727 11.2112L11.3332 13.6101L10.3312 9.08874L13.6673 6.0466L9.27418 5.65427L7.55727 1.39014L5.84036 5.65427L1.44727 6.0466L4.78333 9.08874L3.78129 13.6101L7.55727 11.2112Z" fill="#FDD264"/>
<path d="M24.5573 11.2112L28.3332 13.6101L27.3312 9.08874L30.6673 6.0466L26.2742 5.65427L24.5573 1.39014L22.8404 5.65427L18.4473 6.0466L21.7833 9.08874L20.7813 13.6101L24.5573 11.2112Z" fill="#FDD264"/>
<path d="M41.5573 11.2112L45.3332 13.6101L44.3312 9.08874L47.6673 6.0466L43.2742 5.65427L41.5573 1.39014L39.8404 5.65427L35.4473 6.0466L38.7833 9.08874L37.7813 13.6101L41.5573 11.2112Z" fill="#FDD264"/>
<path d="M58.5573 11.2112L62.3332 13.6101L61.3312 9.08874L64.6673 6.0466L60.2742 5.65427L58.5573 1.39014L56.8404 5.65427L52.4473 6.0466L55.7833 9.08874L54.7813 13.6101L58.5573 11.2112Z" fill="#FDD264"/>
<path d="M75.5573 11.2112L79.3332 13.6101L78.3312 9.08874L81.6673 6.0466L77.2742 5.65427L75.5573 1.39014L73.8404 5.65427L69.4473 6.0466L72.7833 9.08874L71.7813 13.6101L75.5573 11.2112Z" fill="#FDD264"/>
</svg>
