<svg width="99" height="16" viewBox="0 0 99 16" fill="none" xmlns="http://www.w3.org/2000/svg">
<path d="M0 4C0 1.79086 1.79086 0 4 0H73C75.2091 0 77 1.79086 77 4V12C77 14.2091 75.2091 16 73 16H4C1.79086 16 0 14.2091 0 12V4Z" fill="#FFDEDE"/>
<path d="M10.9402 12H7.84641V3.27273H10.9657C11.8436 3.27273 12.5993 3.44744 13.2328 3.79688C13.8663 4.14347 14.3535 4.64205 14.6944 5.29261C15.0382 5.94318 15.2101 6.72159 15.2101 7.62784C15.2101 8.53693 15.0382 9.31818 14.6944 9.97159C14.3535 10.625 13.8635 11.1264 13.2243 11.4759C12.5879 11.8253 11.8265 12 10.9402 12ZM9.69158 10.419H10.8635C11.4089 10.419 11.8677 10.3224 12.2399 10.1293C12.6149 9.93324 12.8961 9.63068 13.0836 9.22159C13.274 8.80966 13.3691 8.27841 13.3691 7.62784C13.3691 6.98295 13.274 6.45597 13.0836 6.04688C12.8961 5.63778 12.6163 5.33665 12.2441 5.14347C11.872 4.95028 11.4132 4.85369 10.8677 4.85369H9.69158V10.419ZM16.5769 12V3.27273H20.0201C20.6792 3.27273 21.2417 3.39062 21.7076 3.62642C22.1763 3.85937 22.5328 4.19034 22.7772 4.61932C23.0243 5.04545 23.1479 5.54687 23.1479 6.12358C23.1479 6.70312 23.0229 7.2017 22.7729 7.61932C22.5229 8.03409 22.1607 8.35227 21.6863 8.57386C21.2147 8.79545 20.6436 8.90625 19.9732 8.90625H17.6678V7.4233H19.6749C20.0272 7.4233 20.3198 7.375 20.5527 7.27841C20.7857 7.18182 20.959 7.03693 21.0726 6.84375C21.1891 6.65057 21.2473 6.41051 21.2473 6.12358C21.2473 5.83381 21.1891 5.58949 21.0726 5.39062C20.959 5.19176 20.7843 5.04119 20.5485 4.93892C20.3155 4.83381 20.0215 4.78125 19.6664 4.78125H18.4221V12H16.5769ZM21.29 8.02841L23.459 12H21.4221L19.2999 8.02841H21.29ZM26.2971 3.27273V12H24.4519V3.27273H26.2971ZM35.1149 3.27273V12H33.5211L29.7243 6.5071H29.6603V12H27.8152V3.27273H29.4345L33.2015 8.76136H33.2782V3.27273H35.1149ZM42.4263 6.09375C42.3667 5.88636 42.2828 5.70312 42.1749 5.54403C42.0669 5.3821 41.9348 5.24574 41.7786 5.13494C41.6252 5.02131 41.449 4.93466 41.2502 4.875C41.0542 4.81534 40.8368 4.78551 40.5982 4.78551C40.1522 4.78551 39.7601 4.89631 39.4221 5.1179C39.0868 5.33949 38.8255 5.66193 38.638 6.08523C38.4505 6.50568 38.3567 7.01989 38.3567 7.62784C38.3567 8.2358 38.449 8.75284 38.6337 9.17898C38.8184 9.60511 39.0797 9.9304 39.4178 10.1548C39.7559 10.3764 40.155 10.4872 40.6152 10.4872C41.0328 10.4872 41.3894 10.4134 41.6848 10.2656C41.9831 10.1151 42.2104 9.90341 42.3667 9.63068C42.5257 9.35795 42.6053 9.03551 42.6053 8.66335L42.9803 8.71875H40.7303V7.32955H44.3823V8.42898C44.3823 9.19602 44.2203 9.85511 43.8965 10.4062C43.5726 10.9545 43.1266 11.3778 42.5584 11.6761C41.9902 11.9716 41.3397 12.1193 40.6067 12.1193C39.7885 12.1193 39.0698 11.9389 38.4505 11.5781C37.8311 11.2145 37.3482 10.6989 37.0016 10.0312C36.6578 9.3608 36.486 8.56534 36.486 7.64489C36.486 6.9375 36.5882 6.30682 36.7928 5.75284C37.0002 5.19602 37.29 4.72443 37.6621 4.33807C38.0343 3.9517 38.4675 3.65767 38.9618 3.45597C39.4561 3.25426 39.9917 3.15341 40.5684 3.15341C41.0627 3.15341 41.5229 3.22585 41.949 3.37074C42.3752 3.51278 42.753 3.71449 43.0826 3.97585C43.415 4.23722 43.6863 4.5483 43.8965 4.90909C44.1067 5.26705 44.2417 5.66193 44.3013 6.09375H42.4263ZM45.7683 12V3.27273H51.649V4.79403H47.6135V6.87358H51.3464V8.39489H47.6135V10.4787H51.666V12H45.7683ZM60.4157 3.27273V12H58.8219L55.025 6.5071H54.9611V12H53.1159V3.27273H54.7353L58.5023 8.76136H58.579V3.27273H60.4157ZM65.0339 12H61.9402V3.27273H65.0595C65.9373 3.27273 66.693 3.44744 67.3265 3.79688C67.9601 4.14347 68.4473 4.64205 68.7882 5.29261C69.1319 5.94318 69.3038 6.72159 69.3038 7.62784C69.3038 8.53693 69.1319 9.31818 68.7882 9.97159C68.4473 10.625 67.9572 11.1264 67.318 11.4759C66.6816 11.8253 65.9203 12 65.0339 12ZM63.7853 10.419H64.9572C65.5027 10.419 65.9615 10.3224 66.3336 10.1293C66.7086 9.93324 66.9899 9.63068 67.1774 9.22159C67.3677 8.80966 67.4629 8.27841 67.4629 7.62784C67.4629 6.98295 67.3677 6.45597 67.1774 6.04688C66.9899 5.63778 66.71 5.33665 66.3379 5.14347C65.9657 4.95028 65.5069 4.85369 64.9615 4.85369H63.7853V10.419Z" fill="#FE2414"/>
<path d="M85 16V1.77778C85 1.28889 85.1958 0.87037 85.5875 0.522222C85.9792 0.174074 86.45 0 87 0H97C97.55 0 98.0208 0.174074 98.4125 0.522222C98.8042 0.87037 99 1.28889 99 1.77778V16L92 13.3333L85 16ZM87 13.2889L92 11.3778L97 13.2889V1.77778H87V13.2889Z" fill="#1461F0"/>
</svg>
