<svg width="26" height="26" viewBox="0 0 26 26" fill="none" xmlns="http://www.w3.org/2000/svg">
<path d="M18.4704 21.97C17.4088 22.9992 16.2496 22.8367 15.1338 22.3492C13.9529 21.8508 12.8696 21.8292 11.6238 22.3492C10.0638 23.0208 9.24044 22.8258 8.30877 21.97C3.02211 16.5208 3.80211 8.2225 9.80378 7.91917C11.2663 7.995 12.2846 8.72083 13.1404 8.78583C14.4188 8.52583 15.6429 7.77833 17.0079 7.87583C18.6438 8.00583 19.8788 8.65583 20.6913 9.82583C17.3113 11.8517 18.1129 16.3042 21.2113 17.55C20.5938 19.175 19.7921 20.7892 18.4596 21.9808L18.4704 21.97ZM13.0321 7.85417C12.8696 5.43833 14.8304 3.445 17.0838 3.25C17.3979 6.045 14.5488 8.125 13.0321 7.85417Z" fill="black"/>
</svg>
