<svg width="41" height="40" viewBox="0 0 41 40" fill="none" xmlns="http://www.w3.org/2000/svg">
<rect x="0.5" width="40" height="40" rx="8" fill="#E9E9E9"/>
<path fill-rule="evenodd" clip-rule="evenodd" d="M10.5 20C10.5 16.0054 10.5 14.0081 11.4519 12.5695C11.8769 11.9271 12.4271 11.3769 13.0695 10.9519C14.5081 10 16.5054 10 20.5 10C24.4946 10 26.4919 10 27.9305 10.9519C28.5729 11.3769 29.1231 11.9271 29.5481 12.5695C30.5 14.0081 30.5 16.0054 30.5 20C30.5 23.9946 30.5 25.9919 29.5481 27.4305C29.1231 28.0729 28.5729 28.6231 27.9305 29.0481C26.4919 30 24.4946 30 20.5 30C16.5054 30 14.5081 30 13.0695 29.0481C12.4271 28.6231 11.8769 28.0729 11.4519 27.4305C10.5 25.9919 10.5 23.9946 10.5 20ZM25.6769 20.0003C25.6769 22.8595 23.3591 25.1774 20.4998 25.1774C17.6406 25.1774 15.3227 22.8595 15.3227 20.0003C15.3227 17.141 17.6406 14.8231 20.4998 14.8231C23.3591 14.8231 25.6769 17.141 25.6769 20.0003ZM20.4998 23.4258C22.3917 23.4258 23.9254 21.8921 23.9254 20.0003C23.9254 18.1084 22.3917 16.5747 20.4998 16.5747C18.6079 16.5747 17.0743 18.1084 17.0743 20.0003C17.0743 21.8921 18.6079 23.4258 20.4998 23.4258ZM25.8814 15.7795C26.5533 15.7795 27.0979 15.2349 27.0979 14.563C27.0979 13.8912 26.5533 13.3466 25.8814 13.3466C25.2096 13.3466 24.6649 13.8912 24.6649 14.563C24.6649 15.2349 25.2096 15.7795 25.8814 15.7795Z" fill="#939393"/>
</svg>
