<svg width="41" height="40" viewBox="0 0 41 40" fill="none" xmlns="http://www.w3.org/2000/svg">
<rect x="0.5" width="40" height="40" rx="8" fill="#E9E9E9"/>
<path d="M10.5 12.6887C10.5 12.0473 10.7252 11.5182 11.1757 11.1014C11.6261 10.6845 12.2117 10.4761 12.9324 10.4761C13.6403 10.4761 14.213 10.6813 14.6506 11.0918C15.101 11.515 15.3263 12.0666 15.3263 12.7464C15.3263 13.3621 15.1075 13.8751 14.6699 14.2856C14.2194 14.7089 13.6274 14.9205 12.8938 14.9205H12.8745C12.1667 14.9205 11.594 14.7089 11.1564 14.2856C10.7188 13.8623 10.5 13.33 10.5 12.6887ZM10.751 29.5237V16.6714H15.0367V29.5237H10.751ZM17.4112 29.5237H21.6969V22.3472C21.6969 21.8982 21.7484 21.5519 21.8514 21.3082C22.0315 20.8721 22.305 20.5033 22.6718 20.2019C23.0386 19.9005 23.4987 19.7498 24.0521 19.7498C25.4936 19.7498 26.2143 20.7182 26.2143 22.655V29.5237H30.5V22.1548C30.5 20.2564 30.0496 18.8166 29.1486 17.8354C28.2477 16.8541 27.0573 16.3635 25.5772 16.3635C23.917 16.3635 22.6236 17.0754 21.6969 18.4992V18.5376H21.6776L21.6969 18.4992V16.6714H17.4112C17.4369 17.0818 17.4498 18.3581 17.4498 20.5001C17.4498 22.6422 17.4369 25.65 17.4112 29.5237Z" fill="#939393"/>
</svg>
