<svg width="24" height="24" viewBox="0 0 24 24" fill="none" xmlns="http://www.w3.org/2000/svg">
<path d="M22.0196 12.2331C22.0196 11.3698 21.9497 10.7398 21.7983 10.0864H11.9541V13.983H17.7324C17.616 14.9514 16.9869 16.4097 15.5888 17.3897L15.5693 17.5202L18.6818 19.9349L18.8974 19.9564C20.8779 18.1247 22.0196 15.4297 22.0196 12.2331Z" fill="#4285F4"/>
<path d="M11.9534 22.5001C14.7843 22.5001 17.1609 21.5667 18.8968 19.9567L15.5882 17.39C14.7028 18.0083 13.5145 18.44 11.9534 18.44C9.18079 18.44 6.82753 16.6083 5.98866 14.0767L5.8657 14.0871L2.62924 16.5955L2.58691 16.7133C4.31108 20.1433 7.85265 22.5001 11.9534 22.5001Z" fill="#34A853"/>
<path d="M5.98887 14.0765C5.76753 13.4232 5.63943 12.7231 5.63943 11.9998C5.63943 11.2764 5.76753 10.5765 5.97722 9.92313L5.97136 9.78398L2.69433 7.23535L2.58711 7.28642C1.8765 8.70977 1.46875 10.3081 1.46875 11.9998C1.46875 13.6915 1.8765 15.2897 2.58711 16.7131L5.98887 14.0765Z" fill="#FBBC05"/>
<path d="M11.9535 5.55997C13.9223 5.55997 15.2504 6.41163 16.0076 7.12335L18.9667 4.23C17.1494 2.53834 14.7844 1.5 11.9535 1.5C7.85268 1.5 4.31109 3.85665 2.58691 7.28662L5.97703 9.92332C6.82756 7.39166 9.18083 5.55997 11.9535 5.55997Z" fill="#EB4335"/>
</svg>
