<svg width="24" height="24" viewBox="0 0 24 24" fill="none" xmlns="http://www.w3.org/2000/svg">
<path d="M23.7802 9.53073L20.4052 12.9057C20.3356 12.9755 20.2529 13.0308 20.1618 13.0685C20.0708 13.1063 19.9732 13.1257 19.8746 13.1257C19.7761 13.1257 19.6785 13.1063 19.5874 13.0685C19.4964 13.0308 19.4136 12.9755 19.344 12.9057L15.969 9.53073L15.9371 9.4951L15.9052 9.53073L12.6849 12.7501L15.9052 15.9695C15.975 16.0391 16.0303 16.1218 16.068 16.2129C16.1058 16.3039 16.1252 16.4015 16.1252 16.5001C16.1252 16.5987 16.1058 16.6963 16.068 16.7873C16.0303 16.8784 15.975 16.9611 15.9052 17.0307L12.5302 20.4057C12.4606 20.4755 12.3779 20.5308 12.2868 20.5685C12.1958 20.6063 12.0982 20.6257 11.9996 20.6257C11.9011 20.6257 11.8035 20.6063 11.7124 20.5685C11.6214 20.5308 11.5386 20.4755 11.469 20.4057L8.09399 17.0307C8.02426 16.9611 7.96894 16.8784 7.93119 16.7873C7.89345 16.6963 7.87402 16.5987 7.87402 16.5001C7.87402 16.4015 7.89345 16.3039 7.93119 16.2129C7.96894 16.1218 8.02426 16.0391 8.09399 15.9695L11.3143 12.7501L8.09399 9.53073L8.06211 9.4951L8.03024 9.53073L4.65524 12.9057C4.58558 12.9755 4.50287 13.0308 4.41182 13.0685C4.32077 13.1063 4.22318 13.1257 4.12461 13.1257C4.02605 13.1257 3.92846 13.1063 3.83741 13.0685C3.74636 13.0308 3.66364 12.9755 3.59399 12.9057L0.218988 9.53073C0.149256 9.46107 0.0939369 9.37836 0.0561936 9.28731C0.0184504 9.19626 -0.000976562 9.09866 -0.000976562 9.0001C-0.000976562 8.90154 0.0184504 8.80395 0.0561936 8.7129C0.0939369 8.62185 0.149256 8.53913 0.218988 8.46948L3.59399 5.09448C3.66364 5.02474 3.74636 4.96943 3.83741 4.93168C3.92846 4.89394 4.02605 4.87451 4.12461 4.87451C4.22318 4.87451 4.32077 4.89394 4.41182 4.93168C4.50287 4.96943 4.58558 5.02474 4.65524 5.09448L8.03024 8.46948L8.06211 8.5051L8.09399 8.46948L11.469 5.09448C11.5386 5.02474 11.6214 4.96943 11.7124 4.93168C11.8035 4.89394 11.9011 4.87451 11.9996 4.87451C12.0982 4.87451 12.1958 4.89394 12.2868 4.93168C12.3779 4.96943 12.4606 5.02474 12.5302 5.09448L15.9052 8.46948L15.9371 8.5051L15.969 8.46948L19.344 5.09448C19.4136 5.02474 19.4964 4.96943 19.5874 4.93168C19.6785 4.89394 19.7761 4.87451 19.8746 4.87451C19.9732 4.87451 20.0708 4.89394 20.1618 4.93168C20.2529 4.96943 20.3356 5.02474 20.4052 5.09448L23.7802 8.46948C23.85 8.53913 23.9053 8.62185 23.943 8.7129C23.9808 8.80395 24.0002 8.90154 24.0002 9.0001C24.0002 9.09866 23.9808 9.19626 23.943 9.28731C23.9053 9.37836 23.85 9.46107 23.7802 9.53073Z" fill="url(#paint0_linear_14_73496)"/>
<defs>
<linearGradient id="paint0_linear_14_73496" x1="2" y1="5" x2="26" y2="20" gradientUnits="userSpaceOnUse">
<stop stop-color="#FF8334"/>
<stop offset="1" stop-color="#BF4A00"/>
</linearGradient>
</defs>
</svg>
