<svg width="24" height="24" viewBox="0 0 24 24" fill="none" xmlns="http://www.w3.org/2000/svg">
<g clip-path="url(#clip0_6842_11189)">
<path d="M23.9862 12C23.9862 5.37262 18.7286 0 12.2431 0C5.75762 0 0.5 5.37262 0.5 12C0.5 17.9895 4.79431 22.954 10.4083 23.8542V15.4688H7.42661V12H10.4083V9.35625C10.4083 6.34875 12.1615 4.6875 14.8439 4.6875C16.1286 4.6875 17.4725 4.92188 17.4725 4.92188V7.875H15.9917C14.5329 7.875 14.078 8.80003 14.078 9.74906V12H17.3349L16.8142 15.4688H14.078V23.8542C19.6919 22.954 23.9862 17.9896 23.9862 12Z" fill="#1877F2"/>
<path d="M16.8141 15.4688L17.3348 12H14.0779V9.74906C14.0779 8.79994 14.5328 7.875 15.9917 7.875H17.4724V4.92188C17.4724 4.92188 16.1285 4.6875 14.8437 4.6875C12.1614 4.6875 10.4082 6.34875 10.4082 9.35625V12H7.42651V15.4688H10.4082V23.8542C11.0152 23.9514 11.6286 24.0001 12.243 24C12.8574 24.0001 13.4709 23.9514 14.0779 23.8542V15.4688H16.8141Z" fill="white"/>
</g>
<defs>
<clipPath id="clip0_6842_11189">
<rect width="23.4862" height="24" fill="white" transform="translate(0.5)"/>
</clipPath>
</defs>
</svg>
