<svg width="20" height="24" viewBox="0 0 20 24" fill="none" xmlns="http://www.w3.org/2000/svg">
<path d="M0 20.4V18H2.4V9.6C2.4 7.94 2.9 6.465 3.9 5.175C4.9 3.885 6.2 3.04 7.8 2.64V1.8C7.8 1.3 7.975 0.875 8.325 0.525C8.675 0.175 9.1 0 9.6 0C10.1 0 10.525 0.175 10.875 0.525C11.225 0.875 11.4 1.3 11.4 1.8V2.64C13 3.04 14.3 3.885 15.3 5.175C16.3 6.465 16.8 7.94 16.8 9.6V18H19.2V20.4H0ZM9.6 24C8.94 24 8.375 23.765 7.905 23.295C7.435 22.825 7.2 22.26 7.2 21.6H12C12 22.26 11.765 22.825 11.295 23.295C10.825 23.765 10.26 24 9.6 24ZM4.8 18H14.4V9.6C14.4 8.28 13.93 7.15 12.99 6.21C12.05 5.27 10.92 4.8 9.6 4.8C8.28 4.8 7.15 5.27 6.21 6.21C5.27 7.15 4.8 8.28 4.8 9.6V18Z" fill="#1461F0"/>
</svg>
