<svg width="20" height="22" viewBox="0 0 20 22" fill="none" xmlns="http://www.w3.org/2000/svg">
<path fill-rule="evenodd" clip-rule="evenodd" d="M5.68218 21.1531L6.09112 18.743L5.18015 18.7233H0.830078L3.85322 0.937659C3.86264 0.883802 3.89309 0.833806 3.93755 0.79824C3.98224 0.762675 4.03919 0.743164 4.09876 0.743164H11.4336C13.8689 0.743164 15.5493 1.21324 16.4266 2.14121C16.8379 2.57654 17.0999 3.03158 17.2267 3.53214C17.3597 4.0575 17.3619 4.68509 17.2322 5.45067L17.2228 5.50635V5.99696L17.6341 6.2132C17.9804 6.38372 18.2558 6.57882 18.4669 6.80217C18.8187 7.1745 19.0463 7.64763 19.1424 8.20835C19.2419 8.78513 19.209 9.47165 19.0463 10.2488C18.8586 11.1426 18.5552 11.9212 18.1454 12.5582C17.7686 13.1451 17.2885 13.632 16.7183 14.0093C16.174 14.3678 15.5274 14.6399 14.7963 14.8141C14.0877 14.9852 13.2799 15.0716 12.3939 15.0716H11.8231C11.415 15.0716 11.0186 15.2079 10.7073 15.4524C10.3952 15.702 10.1889 16.043 10.1256 16.4159L10.0824 16.633L9.35981 20.8812L9.32717 21.0371C9.31841 21.0865 9.30351 21.1111 9.28161 21.1277C9.26212 21.143 9.23408 21.1531 9.2067 21.1531H5.68218Z" fill="#28356A"/>
<path fill-rule="evenodd" clip-rule="evenodd" d="M18.0227 5.56299C18.001 5.69285 17.9758 5.82557 17.9478 5.96194C16.9805 10.5701 13.6711 12.162 9.44453 12.162H7.2925C6.77557 12.162 6.3399 12.5101 6.25952 12.9833L4.84563 21.3047C4.79328 21.6154 5.05131 21.8953 5.38907 21.8953H9.206C9.65787 21.8953 10.0418 21.5906 10.113 21.177L10.1505 20.9972L10.8691 16.7656L10.9154 16.5335C10.9857 16.1185 11.3705 15.8137 11.8224 15.8137H12.3932C16.0912 15.8137 18.9862 14.4207 19.8324 10.3894C20.1857 8.70539 20.0028 7.29921 19.0675 6.31028C18.7845 6.01213 18.4334 5.7646 18.0227 5.56299Z" fill="#298FC2"/>
<path fill-rule="evenodd" clip-rule="evenodd" d="M17.0112 5.18834C16.8633 5.1483 16.7109 5.11212 16.5545 5.0794C16.3972 5.0475 16.2362 5.01925 16.0704 4.99445C15.4902 4.90747 14.8543 4.86621 14.1733 4.86621H8.42429C8.28257 4.86621 8.14808 4.89588 8.02783 4.94954C7.76258 5.06782 7.56566 5.30072 7.51791 5.58586L6.29481 12.7734L6.25977 12.983C6.34015 12.5098 6.77582 12.1617 7.29274 12.1617H9.44478C13.6713 12.1617 16.9807 10.5689 17.948 5.96164C17.9769 5.82527 18.0012 5.69256 18.0229 5.56269C17.7783 5.44218 17.5132 5.33914 17.2278 5.25134C17.1573 5.22959 17.0846 5.20866 17.0112 5.18834Z" fill="#22284F"/>
<path fill-rule="evenodd" clip-rule="evenodd" d="M7.51793 5.58608C7.56568 5.30094 7.7626 5.06804 8.02785 4.95057C8.14898 4.89671 8.28259 4.86704 8.42431 4.86704H14.1734C14.8544 4.86704 15.4902 4.9085 16.0704 4.99548C16.2363 5.02008 16.3972 5.04853 16.5545 5.08044C16.7109 5.11295 16.8634 5.14933 17.0112 5.18917C17.0846 5.20949 17.1573 5.23063 17.2285 5.25156C17.5139 5.33936 17.7791 5.44321 18.0238 5.56291C18.3116 3.86002 18.0214 2.70057 17.0292 1.65066C15.9351 0.494671 13.9607 0 11.4341 0H4.09899C3.58294 0 3.14267 0.348139 3.06294 0.82208L0.00781878 18.7906C-0.0524163 19.146 0.243064 19.4667 0.629445 19.4667H5.15781L7.51793 5.58608Z" fill="#28356A"/>
</svg>
