<svg width="38" height="21" viewBox="0 0 38 21" fill="none" xmlns="http://www.w3.org/2000/svg">
<rect width="38" height="21" rx="7.33333" fill="#F5CE47" fill-opacity="0.1"/>
<path d="M7.77797 14.2112L11.5539 16.6101L10.5519 12.0887L13.888 9.0466L9.49488 8.65427L7.77797 4.39014L6.06106 8.65427L1.66797 9.0466L5.00403 12.0887L4.00199 16.6101L7.77797 14.2112Z" fill="#FDD264"/>
<path d="M16.918 12.9375V11.4575L20.6289 5.61111H21.9049V7.65972H21.1497L18.8103 11.362V11.4314H24.0838V12.9375H16.918ZM21.1845 14.5V12.4861L21.2192 11.8307V5.61111H22.9813V14.5H21.1845ZM26.2669 14.6128C25.9805 14.6128 25.7345 14.5116 25.5291 14.309C25.3265 14.1036 25.2253 13.8576 25.2253 13.5712C25.2253 13.2876 25.3265 13.0446 25.5291 12.842C25.7345 12.6395 25.9805 12.5382 26.2669 12.5382C26.5447 12.5382 26.7878 12.6395 26.9961 12.842C27.2044 13.0446 27.3086 13.2876 27.3086 13.5712C27.3086 13.7622 27.2594 13.9372 27.161 14.0964C27.0655 14.2526 26.9397 14.3785 26.7834 14.474C26.6272 14.5666 26.455 14.6128 26.2669 14.6128ZM31.7671 14.6215C31.0987 14.6215 30.5041 14.513 29.9833 14.296C29.4654 14.0761 29.0588 13.7766 28.7637 13.3976C28.4685 13.0185 28.321 12.5888 28.321 12.1085C28.321 11.7381 28.4049 11.3981 28.5727 11.0885C28.7434 10.776 28.9749 10.5171 29.2671 10.3116C29.5594 10.1033 29.8864 9.9702 30.248 9.91233V9.85156C29.7735 9.75608 29.3887 9.52604 29.0935 9.16146C28.7984 8.79398 28.6508 8.36719 28.6508 7.88108C28.6508 7.42101 28.7854 7.01157 29.0545 6.65278C29.3236 6.29109 29.6925 6.00752 30.1612 5.80208C30.6329 5.59375 31.1682 5.48958 31.7671 5.48958C32.3661 5.48958 32.9 5.59375 33.3687 5.80208C33.8404 6.01042 34.2107 6.29543 34.4798 6.65712C34.7489 7.01591 34.8849 7.4239 34.8878 7.88108C34.8849 8.37008 34.7344 8.79687 34.4364 9.16146C34.1384 9.52604 33.7564 9.75608 33.2906 9.85156V9.91233C33.6465 9.9702 33.9691 10.1033 34.2585 10.3116C34.5507 10.5171 34.7822 10.776 34.9529 11.0885C35.1265 11.3981 35.2148 11.7381 35.2177 12.1085C35.2148 12.5888 35.0658 13.0185 34.7706 13.3976C34.4755 13.7766 34.0675 14.0761 33.5467 14.296C33.0287 14.513 32.4355 14.6215 31.7671 14.6215ZM31.7671 13.2413C32.0652 13.2413 32.3256 13.1878 32.5484 13.0807C32.7712 12.9708 32.9448 12.8203 33.0692 12.6293C33.1965 12.4355 33.2602 12.2127 33.2602 11.9609C33.2602 11.7034 33.1951 11.4763 33.0649 11.2795C32.9347 11.0799 32.7582 10.9236 32.5354 10.8108C32.3126 10.695 32.0565 10.6372 31.7671 10.6372C31.4807 10.6372 31.2246 10.695 30.9989 10.8108C30.7732 10.9236 30.5953 11.0799 30.4651 11.2795C30.3377 11.4763 30.2741 11.7034 30.2741 11.9609C30.2741 12.2127 30.3363 12.4355 30.4607 12.6293C30.5851 12.8203 30.7602 12.9708 30.9859 13.0807C31.2116 13.1878 31.472 13.2413 31.7671 13.2413ZM31.7671 9.26997C32.016 9.26997 32.2373 9.21933 32.4312 9.11806C32.6251 9.01678 32.777 8.87645 32.8869 8.69705C32.9969 8.51765 33.0519 8.31076 33.0519 8.07639C33.0519 7.84491 32.9969 7.64236 32.8869 7.46875C32.777 7.29224 32.6265 7.1548 32.4355 7.05642C32.2446 6.95515 32.0218 6.90451 31.7671 6.90451C31.5154 6.90451 31.2926 6.95515 31.0987 7.05642C30.9049 7.1548 30.753 7.29224 30.643 7.46875C30.536 7.64236 30.4824 7.84491 30.4824 8.07639C30.4824 8.31076 30.5374 8.51765 30.6474 8.69705C30.7573 8.87645 30.9092 9.01678 31.1031 9.11806C31.2969 9.21933 31.5183 9.26997 31.7671 9.26997Z" fill="#080808"/>
</svg>
