<svg width="41" height="40" viewBox="0 0 41 40" fill="none" xmlns="http://www.w3.org/2000/svg">
<rect x="0.5" width="40" height="40" rx="8" fill="#E9E9E9"/>
<path d="M23.8634 11.8903V11.8867H24.8012L25.1438 11.9552C25.3723 11.9996 25.5797 12.0578 25.766 12.1298C25.9524 12.2019 26.1327 12.2859 26.307 12.382C26.4814 12.478 26.6395 12.5759 26.7814 12.6755C26.922 12.774 27.0483 12.8784 27.1601 12.9889C27.2707 13.1005 27.4432 13.1294 27.6776 13.0753C27.9121 13.0213 28.1646 12.9463 28.4351 12.8502C28.7056 12.7542 28.9731 12.6461 29.2376 12.5261C29.5021 12.406 29.6632 12.3297 29.7209 12.2973C29.7774 12.2637 29.8075 12.2457 29.8111 12.2433L29.8147 12.2379L29.8327 12.2289L29.8508 12.2199L29.8688 12.2109L29.8868 12.2019L29.8904 12.1965L29.8959 12.1929L29.9013 12.1893L29.9049 12.1839L29.9229 12.1785L29.9409 12.1749L29.9373 12.2019L29.9319 12.2289L29.9229 12.2559L29.9139 12.2829L29.9049 12.3009L29.8959 12.3189L29.8868 12.346C29.8808 12.364 29.8748 12.388 29.8688 12.418C29.8628 12.448 29.8057 12.5681 29.6975 12.7782C29.5893 12.9883 29.454 13.2014 29.2917 13.4175C29.1294 13.6336 28.9839 13.7969 28.8553 13.9074C28.7254 14.019 28.6395 14.0971 28.5974 14.1415C28.5553 14.1871 28.5042 14.2291 28.4441 14.2676L28.3539 14.327L28.3359 14.336L28.3179 14.345L28.3143 14.3504L28.3088 14.354L28.3034 14.3576L28.2998 14.363L28.2818 14.372L28.2638 14.381L28.2602 14.3864L28.2547 14.39L28.2493 14.3936L28.2457 14.399L28.2421 14.4044L28.2367 14.408L28.2313 14.4116L28.2277 14.417H28.3179L28.8228 14.309C29.1595 14.2369 29.4811 14.1499 29.7876 14.0478L30.2746 13.8858L30.3287 13.8677L30.3557 13.8587L30.3738 13.8497L30.3918 13.8407L30.4098 13.8317L30.4279 13.8227L30.4639 13.8173L30.5 13.8137V13.8497L30.491 13.8533L30.482 13.8587L30.4784 13.8641L30.4729 13.8677L30.4675 13.8713L30.4639 13.8768L30.4603 13.8822L30.4549 13.8858L30.4495 13.8894L30.4459 13.8948L30.4423 13.9002L30.4369 13.9038L30.4279 13.9218L30.4188 13.9398L30.4134 13.9434C30.411 13.947 30.3347 14.049 30.1844 14.2495C30.0341 14.4512 29.953 14.5533 29.9409 14.5557C29.9289 14.5593 29.9121 14.5773 29.8904 14.6097C29.87 14.6433 29.7426 14.7772 29.5081 15.0113C29.2737 15.2455 29.0441 15.4538 28.8192 15.6363C28.5932 15.82 28.479 16.0457 28.4766 16.3134C28.473 16.58 28.4591 16.8813 28.4351 17.2175C28.411 17.5537 28.366 17.9168 28.2998 18.307C28.2337 18.6973 28.1315 19.1385 27.9932 19.6307C27.855 20.123 27.6867 20.6032 27.4883 21.0715C27.2899 21.5397 27.0825 21.9599 26.8661 22.3321C26.6497 22.7043 26.4513 23.0195 26.271 23.2776C26.0906 23.5358 25.9073 23.7789 25.7209 24.007C25.5346 24.2351 25.2989 24.4921 25.014 24.7778C24.7278 25.0624 24.5716 25.2184 24.5451 25.246C24.5175 25.2725 24.3996 25.3709 24.1916 25.5414C23.9848 25.7131 23.7624 25.8848 23.5243 26.0565C23.2875 26.227 23.0699 26.3692 22.8715 26.4833C22.6731 26.5973 22.4339 26.7276 22.1537 26.8741C21.8748 27.0218 21.573 27.1586 21.2484 27.2847C20.9238 27.4108 20.5812 27.5278 20.2205 27.6359C19.8598 27.7439 19.5111 27.828 19.1745 27.888C18.8379 27.948 18.4561 27.9991 18.0293 28.0411L17.3891 28.1041V28.1131H16.2169V28.1041L16.0636 28.0951C15.9614 28.0891 15.8772 28.0831 15.8111 28.0771C15.745 28.0711 15.4955 28.0381 15.0627 27.9781C14.6298 27.918 14.2902 27.858 14.0437 27.798C13.7973 27.7379 13.4306 27.6239 12.9436 27.4558C12.4567 27.2877 12.0401 27.1178 11.6939 26.9461C11.3488 26.7756 11.1324 26.6676 11.0446 26.622C10.9581 26.5775 10.8607 26.5223 10.7525 26.4563L10.5902 26.3572L10.5866 26.3518L10.5812 26.3482L10.5757 26.3446L10.5721 26.3392L10.5541 26.3302L10.5361 26.3212L10.5325 26.3158L10.5271 26.3122L10.5216 26.3086L10.518 26.3032L10.5144 26.2978L10.509 26.2942H10.5V26.2582L10.518 26.2618L10.5361 26.2672L10.6172 26.2762C10.6713 26.2822 10.8186 26.2912 11.0591 26.3032C11.2995 26.3152 11.555 26.3152 11.8255 26.3032C12.096 26.2912 12.3726 26.2642 12.6551 26.2222C12.9376 26.1801 13.2713 26.1081 13.656 26.006C14.0407 25.904 14.3942 25.7827 14.7164 25.6423C15.0374 25.5006 15.2659 25.3949 15.4017 25.3253C15.5364 25.2569 15.742 25.1296 16.0185 24.9435L16.4333 24.6643L16.4369 24.6589L16.4423 24.6553L16.4477 24.6517L16.4513 24.6463L16.4549 24.6409L16.4603 24.6373L16.4658 24.6337L16.4693 24.6283L16.4874 24.6229L16.5054 24.6193L16.509 24.6013L16.5144 24.5833L16.5199 24.5797L16.5234 24.5743L16.3792 24.5653C16.283 24.5593 16.1898 24.5533 16.0996 24.5473C16.0095 24.5413 15.8682 24.5143 15.6758 24.4662C15.4835 24.4182 15.2761 24.3462 15.0537 24.2501C14.8312 24.1541 14.6148 24.04 14.4044 23.908C14.194 23.7759 14.0419 23.666 13.9482 23.5784C13.8556 23.4919 13.7353 23.3695 13.5875 23.211C13.4408 23.0513 13.3133 22.8874 13.2051 22.7193C13.0969 22.5513 12.9935 22.3573 12.895 22.1376L12.7453 21.8099L12.7362 21.7829L12.7272 21.7558L12.7218 21.7378L12.7182 21.7198L12.7453 21.7234L12.7723 21.7288L12.9707 21.7558C13.103 21.7738 13.3104 21.7798 13.5929 21.7738C13.8754 21.7679 14.0708 21.7558 14.179 21.7378C14.2872 21.7198 14.3533 21.7078 14.3774 21.7018L14.4134 21.6928L14.4585 21.6838L14.5036 21.6748L14.5072 21.6694L14.5126 21.6658L14.5181 21.6622L14.5216 21.6568L14.4856 21.6478L14.4495 21.6388L14.4134 21.6298L14.3774 21.6208L14.3413 21.6118C14.3173 21.6058 14.2752 21.5938 14.2151 21.5757C14.155 21.5577 13.9926 21.4917 13.7281 21.3776C13.4636 21.2636 13.2532 21.1525 13.0969 21.0445C12.9402 20.9361 12.7908 20.8176 12.6497 20.6897C12.509 20.56 12.3545 20.3931 12.1862 20.189C12.0179 19.9849 11.8676 19.7478 11.7353 19.4777C11.6031 19.2075 11.5039 18.9494 11.4378 18.7033C11.3719 18.4586 11.3285 18.2084 11.308 17.9559L11.2755 17.5777L11.2935 17.5813L11.3115 17.5867L11.3296 17.5957L11.3476 17.6047L11.3656 17.6137L11.3837 17.6227L11.6632 17.7488C11.8496 17.8328 12.081 17.9048 12.3575 17.9649C12.6341 18.0249 12.7994 18.0579 12.8535 18.0639L12.9346 18.0729H13.0969L13.0933 18.0675L13.0879 18.0639L13.0825 18.0603L13.0789 18.0549L13.0753 18.0495L13.0699 18.0459L13.0645 18.0423L13.0609 18.0369L13.0428 18.0279L13.0248 18.0189L13.0212 18.0135L13.0158 18.0099L13.0104 18.0063L13.0068 18.0009L12.9887 17.9919L12.9707 17.9829L12.9671 17.9775C12.9635 17.9751 12.9118 17.9367 12.812 17.8622C12.7134 17.7866 12.61 17.6887 12.5018 17.5687C12.3936 17.4486 12.2854 17.3225 12.1772 17.1905C12.0688 17.0581 11.9722 16.9165 11.8886 16.7673C11.8045 16.6172 11.7155 16.4263 11.6217 16.1946C11.5292 15.964 11.4588 15.7317 11.4107 15.4976C11.3627 15.2635 11.3356 15.0324 11.3296 14.8042C11.3236 14.5761 11.3296 14.381 11.3476 14.2189C11.3656 14.0568 11.4017 13.8737 11.4558 13.6696C11.5099 13.4655 11.5881 13.2494 11.6903 13.0213L11.8436 12.6791L11.8526 12.6521L11.8616 12.6251L11.867 12.6215L11.8706 12.6161L11.8742 12.6107L11.8796 12.6071L11.885 12.6107L11.8886 12.6161L11.8922 12.6215L11.8977 12.6251L11.9031 12.6287L11.9067 12.6341L11.9103 12.6395L11.9157 12.6431L11.9247 12.6611L11.9337 12.6791L11.9392 12.6827L11.9427 12.6881L12.1862 12.9583C12.3485 13.1384 12.5409 13.3395 12.7633 13.5616C12.9857 13.7837 13.109 13.899 13.133 13.9074C13.1571 13.917 13.1871 13.9446 13.2232 13.9902C13.2592 14.0346 13.3795 14.1409 13.5839 14.309C13.7883 14.4771 14.0558 14.6722 14.3864 14.8943C14.717 15.1164 15.0837 15.3355 15.4865 15.5516C15.8893 15.7677 16.3221 15.9628 16.7849 16.1369C17.2478 16.311 17.5724 16.4251 17.7588 16.4791C17.9452 16.5331 18.2638 16.6022 18.7146 16.6862C19.1655 16.7703 19.5051 16.8243 19.7335 16.8483C19.962 16.8723 20.1183 16.8861 20.2024 16.8897L20.3287 16.8933L20.3251 16.8663L20.3197 16.8393L20.2836 16.6142C20.2595 16.4641 20.2475 16.254 20.2475 15.9838C20.2475 15.7137 20.2686 15.4646 20.3106 15.2365C20.3527 15.0083 20.4159 14.7772 20.5 14.5431C20.5842 14.309 20.6665 14.1211 20.7471 13.9794C20.8288 13.8389 20.9358 13.6786 21.0681 13.4986C21.2003 13.3185 21.3717 13.1324 21.5821 12.9403C21.7925 12.7482 22.0329 12.5771 22.3034 12.427C22.5739 12.2769 22.8234 12.1629 23.0518 12.0848C23.2803 12.0068 23.4727 11.9557 23.6289 11.9317C23.7852 11.9077 23.8634 11.8939 23.8634 11.8903Z" fill="#939393"/>
</svg>
