<svg width="12" height="14" viewBox="0 0 12 14" fill="none" xmlns="http://www.w3.org/2000/svg">
<path d="M6.00033 6.66667C6.36699 6.66667 6.68088 6.53611 6.94199 6.275C7.2031 6.01389 7.33366 5.7 7.33366 5.33333C7.33366 4.96667 7.2031 4.65278 6.94199 4.39167C6.68088 4.13056 6.36699 4 6.00033 4C5.63366 4 5.31977 4.13056 5.05866 4.39167C4.79755 4.65278 4.66699 4.96667 4.66699 5.33333C4.66699 5.7 4.79755 6.01389 5.05866 6.275C5.31977 6.53611 5.63366 6.66667 6.00033 6.66667ZM6.00033 11.5667C7.35588 10.3222 8.36144 9.19167 9.01699 8.175C9.67255 7.15833 10.0003 6.25556 10.0003 5.46667C10.0003 4.25556 9.61421 3.26389 8.84199 2.49167C8.06977 1.71944 7.12255 1.33333 6.00033 1.33333C4.8781 1.33333 3.93088 1.71944 3.15866 2.49167C2.38644 3.26389 2.00033 4.25556 2.00033 5.46667C2.00033 6.25556 2.3281 7.15833 2.98366 8.175C3.63921 9.19167 4.64477 10.3222 6.00033 11.5667ZM6.00033 13.3333C4.21144 11.8111 2.87533 10.3972 1.99199 9.09167C1.10866 7.78611 0.666992 6.57778 0.666992 5.46667C0.666992 3.8 1.2031 2.47222 2.27533 1.48333C3.34755 0.494444 4.58921 0 6.00033 0C7.41144 0 8.6531 0.494444 9.72533 1.48333C10.7975 2.47222 11.3337 3.8 11.3337 5.46667C11.3337 6.57778 10.892 7.78611 10.0087 9.09167C9.12533 10.3972 7.78921 11.8111 6.00033 13.3333Z" fill="#5584E5"/>
</svg>
