<svg width="40" height="27" viewBox="0 0 40 27" fill="none" xmlns="http://www.w3.org/2000/svg">
<path d="M39.6338 7.88438L34.0088 13.5094C33.8927 13.6256 33.7548 13.7178 33.6031 13.7807C33.4513 13.8436 33.2887 13.876 33.1244 13.876C32.9601 13.876 32.7975 13.8436 32.6457 13.7807C32.494 13.7178 32.3561 13.6256 32.24 13.5094L26.615 7.88438L26.5619 7.82501L26.5088 7.88438L21.1416 13.25L26.5088 18.6156C26.625 18.7317 26.7172 18.8696 26.7801 19.0213C26.843 19.1731 26.8754 19.3357 26.8754 19.5C26.8754 19.6643 26.843 19.8269 26.7801 19.9787C26.7172 20.1304 26.625 20.2683 26.5088 20.3844L20.8838 26.0094C20.7677 26.1256 20.6298 26.2178 20.4781 26.2807C20.3263 26.3436 20.1637 26.376 19.9994 26.376C19.8351 26.376 19.6725 26.3436 19.5207 26.2807C19.369 26.2178 19.2311 26.1256 19.115 26.0094L13.49 20.3844C13.3738 20.2683 13.2816 20.1304 13.2187 19.9787C13.1558 19.8269 13.1234 19.6643 13.1234 19.5C13.1234 19.3357 13.1558 19.1731 13.2187 19.0213C13.2816 18.8696 13.3738 18.7317 13.49 18.6156L18.8572 13.25L13.49 7.88438L13.4369 7.82501L13.3838 7.88438L7.75877 13.5094C7.64268 13.6256 7.50482 13.7178 7.35307 13.7807C7.20132 13.8436 7.03867 13.876 6.8744 13.876C6.71013 13.876 6.54747 13.8436 6.39572 13.7807C6.24397 13.7178 6.10611 13.6256 5.99002 13.5094L0.365021 7.88438C0.248801 7.76829 0.156602 7.63043 0.0936968 7.47868C0.0307914 7.32693 -0.00158691 7.16428 -0.00158691 7.00001C-0.00158691 6.83574 0.0307914 6.67308 0.0936968 6.52133C0.156602 6.36958 0.248801 6.23172 0.365021 6.11563L5.99002 0.490632C6.10611 0.374411 6.24397 0.282213 6.39572 0.219307C6.54747 0.156402 6.71013 0.124023 6.8744 0.124023C7.03867 0.124023 7.20132 0.156402 7.35307 0.219307C7.50482 0.282213 7.64268 0.374411 7.75877 0.490632L13.3838 6.11563L13.4369 6.17501L13.49 6.11563L19.115 0.490632C19.2311 0.374411 19.369 0.282213 19.5207 0.219307C19.6725 0.156402 19.8351 0.124023 19.9994 0.124023C20.1637 0.124023 20.3263 0.156402 20.4781 0.219307C20.6298 0.282213 20.7677 0.374411 20.8838 0.490632L26.5088 6.11563L26.5619 6.17501L26.615 6.11563L32.24 0.490632C32.3561 0.374411 32.494 0.282213 32.6457 0.219307C32.7975 0.156402 32.9601 0.124023 33.1244 0.124023C33.2887 0.124023 33.4513 0.156402 33.6031 0.219307C33.7548 0.282213 33.8927 0.374411 34.0088 0.490632L39.6338 6.11563C39.75 6.23172 39.8422 6.36958 39.9051 6.52133C39.968 6.67308 40.0004 6.83574 40.0004 7.00001C40.0004 7.16428 39.968 7.32693 39.9051 7.47868C39.8422 7.63043 39.75 7.76829 39.6338 7.88438Z" fill="url(#paint0_linear_6152_8993)"/>
<defs>
<linearGradient id="paint0_linear_6152_8993" x1="3.33337" y1="0.333171" x2="43.3334" y2="25.3332" gradientUnits="userSpaceOnUse">
<stop stop-color="#FF8334"/>
<stop offset="1" stop-color="#BF4A00"/>
</linearGradient>
</defs>
</svg>
