<svg width="4" height="16" viewBox="0 0 4 16" fill="none" xmlns="http://www.w3.org/2000/svg">
<path d="M2 -8.74228e-08C2.55 -6.33815e-08 3.02083 0.195833 3.4125 0.5875C3.80417 0.979166 4 1.45 4 2C4 2.55 3.80417 3.02083 3.4125 3.4125C3.02083 3.80417 2.55 4 2 4C1.45 4 0.979167 3.80417 0.5875 3.4125C0.195834 3.02083 1.11081e-07 2.55 1.35122e-07 2C1.59164e-07 1.45 0.195834 0.979166 0.5875 0.587499C0.979167 0.195833 1.45 -1.11464e-07 2 -8.74228e-08ZM2 6C2.55 6 3.02083 6.19583 3.4125 6.5875C3.80417 6.97917 4 7.45 4 8C4 8.55 3.80417 9.02083 3.4125 9.4125C3.02083 9.80417 2.55 10 2 10C1.45 10 0.979167 9.80417 0.5875 9.4125C0.195833 9.02083 -1.51187e-07 8.55 -1.27146e-07 8C-1.03105e-07 7.45 0.195833 6.97917 0.5875 6.5875C0.979167 6.19583 1.45 6 2 6ZM2 12C2.55 12 3.02083 12.1958 3.4125 12.5875C3.80417 12.9792 4 13.45 4 14C4 14.55 3.80417 15.0208 3.4125 15.4125C3.02083 15.8042 2.55 16 2 16C1.45 16 0.979167 15.8042 0.5875 15.4125C0.195833 15.0208 -4.13456e-07 14.55 -3.89414e-07 14C-3.65373e-07 13.45 0.195833 12.9792 0.5875 12.5875C0.979167 12.1958 1.45 12 2 12Z" fill="#939393"/>
</svg>
