<svg width="22" height="22" viewBox="0 0 22 22" fill="none" xmlns="http://www.w3.org/2000/svg">
<path d="M20.1 21.5L17.025 18.45C16.725 18.6333 16.4042 18.7708 16.0625 18.8625C15.7208 18.9542 15.3667 19 15 19C13.9 19 12.9583 18.6083 12.175 17.825C11.3917 17.0417 11 16.1 11 15C11 13.9 11.3917 12.9583 12.175 12.175C12.9583 11.3917 13.9 11 15 11C16.1 11 17.0417 11.3917 17.825 12.175C18.6083 12.9583 19 13.9 19 15C19 15.3833 18.95 15.7458 18.85 16.0875C18.75 16.4292 18.6083 16.75 18.425 17.05L21.5 20.1L20.1 21.5ZM4 19C2.9 19 1.95833 18.6083 1.175 17.825C0.391667 17.0417 0 16.1 0 15C0 13.9 0.391667 12.9583 1.175 12.175C1.95833 11.3917 2.9 11 4 11C5.1 11 6.04167 11.3917 6.825 12.175C7.60833 12.9583 8 13.9 8 15C8 16.1 7.60833 17.0417 6.825 17.825C6.04167 18.6083 5.1 19 4 19ZM4 17C4.55 17 5.02083 16.8042 5.4125 16.4125C5.80417 16.0208 6 15.55 6 15C6 14.45 5.80417 13.9792 5.4125 13.5875C5.02083 13.1958 4.55 13 4 13C3.45 13 2.97917 13.1958 2.5875 13.5875C2.19583 13.9792 2 14.45 2 15C2 15.55 2.19583 16.0208 2.5875 16.4125C2.97917 16.8042 3.45 17 4 17ZM15 17C15.55 17 16.0208 16.8042 16.4125 16.4125C16.8042 16.0208 17 15.55 17 15C17 14.45 16.8042 13.9792 16.4125 13.5875C16.0208 13.1958 15.55 13 15 13C14.45 13 13.9792 13.1958 13.5875 13.5875C13.1958 13.9792 13 14.45 13 15C13 15.55 13.1958 16.0208 13.5875 16.4125C13.9792 16.8042 14.45 17 15 17ZM4 8C2.9 8 1.95833 7.60833 1.175 6.825C0.391667 6.04167 0 5.1 0 4C0 2.9 0.391667 1.95833 1.175 1.175C1.95833 0.391667 2.9 0 4 0C5.1 0 6.04167 0.391667 6.825 1.175C7.60833 1.95833 8 2.9 8 4C8 5.1 7.60833 6.04167 6.825 6.825C6.04167 7.60833 5.1 8 4 8ZM15 8C13.9 8 12.9583 7.60833 12.175 6.825C11.3917 6.04167 11 5.1 11 4C11 2.9 11.3917 1.95833 12.175 1.175C12.9583 0.391667 13.9 0 15 0C16.1 0 17.0417 0.391667 17.825 1.175C18.6083 1.95833 19 2.9 19 4C19 5.1 18.6083 6.04167 17.825 6.825C17.0417 7.60833 16.1 8 15 8ZM4 6C4.55 6 5.02083 5.80417 5.4125 5.4125C5.80417 5.02083 6 4.55 6 4C6 3.45 5.80417 2.97917 5.4125 2.5875C5.02083 2.19583 4.55 2 4 2C3.45 2 2.97917 2.19583 2.5875 2.5875C2.19583 2.97917 2 3.45 2 4C2 4.55 2.19583 5.02083 2.5875 5.4125C2.97917 5.80417 3.45 6 4 6ZM15 6C15.55 6 16.0208 5.80417 16.4125 5.4125C16.8042 5.02083 17 4.55 17 4C17 3.45 16.8042 2.97917 16.4125 2.5875C16.0208 2.19583 15.55 2 15 2C14.45 2 13.9792 2.19583 13.5875 2.5875C13.1958 2.97917 13 3.45 13 4C13 4.55 13.1958 5.02083 13.5875 5.4125C13.9792 5.80417 14.45 6 15 6Z" fill="#939393"/>
</svg>
