<svg width="73" height="65" viewBox="0 0 73 65" fill="none" xmlns="http://www.w3.org/2000/svg">
<rect x="4.5" y="0.666626" width="64" height="64" rx="32" fill="white"/>
<g clip-path="url(#clip0_699_7820)">
<path d="M36.5 20.6666C37.9733 20.6666 39.1666 19.4733 39.1666 17.9999C39.1666 16.5266 37.9733 15.3333 36.5 15.3333C35.0266 15.3333 33.8333 16.5266 33.8333 17.9999C33.8333 19.4733 35.0266 20.6666 36.5 20.6666ZM36.5 21.9999C34.72 21.9999 31.1666 22.8933 31.1666 24.6666V25.9999H41.8333V24.6666C41.8333 22.8933 38.28 21.9999 36.5 21.9999Z" fill="#2A282F"/>
</g>
<path d="M4.27526 40.2121V49.6666H2.84415V41.6432H2.78875L0.526678 43.1205V41.754L2.8857 40.2121H4.27526ZM10.1243 49.8236C9.39493 49.8205 8.77171 49.6282 8.25466 49.2465C7.73762 48.8649 7.34214 48.3094 7.06823 47.58C6.79432 46.8506 6.65736 45.9719 6.65736 44.944C6.65736 43.9191 6.79432 43.0435 7.06823 42.3172C7.34521 41.5909 7.74223 41.0369 8.25928 40.6553C8.7794 40.2736 9.40109 40.0828 10.1243 40.0828C10.8476 40.0828 11.4677 40.2752 11.9848 40.6599C12.5018 41.0415 12.8973 41.5955 13.1712 42.3218C13.4482 43.0451 13.5867 43.9191 13.5867 44.944C13.5867 45.975 13.4497 46.8552 13.1758 47.5846C12.9019 48.3109 12.5064 48.8664 11.9894 49.2511C11.4723 49.6328 10.8507 49.8236 10.1243 49.8236ZM10.1243 48.591C10.7645 48.591 11.2646 48.2786 11.6247 47.6538C11.9879 47.0291 12.1694 46.1258 12.1694 44.944C12.1694 44.1592 12.0863 43.4959 11.9201 42.9543C11.757 42.4095 11.5216 41.9971 11.2138 41.7171C10.9091 41.4339 10.546 41.2923 10.1243 41.2923C9.48726 41.2923 8.98714 41.6063 8.62398 42.2341C8.26082 42.8619 8.0777 43.7652 8.07462 44.944C8.07462 45.7318 8.15618 46.3982 8.31929 46.9429C8.48548 47.4846 8.72093 47.8954 9.02561 48.1755C9.3303 48.4525 9.69654 48.591 10.1243 48.591ZM18.2078 45.7703V45.0778C18.7279 45.0778 19.0911 44.9717 19.2973 44.7593C19.5035 44.5439 19.6066 44.1884 19.6066 43.6929V42.368C19.6066 41.8971 19.6589 41.5016 19.7635 41.1815C19.8713 40.8584 20.0344 40.5999 20.2529 40.406C20.4714 40.2121 20.7484 40.072 21.0839 39.9859C21.4193 39.8997 21.8148 39.8566 22.2703 39.8566V40.9507C21.9133 40.9507 21.6348 41.003 21.4347 41.1077C21.2347 41.2123 21.0946 41.3754 21.0146 41.597C20.9377 41.8155 20.8992 42.0956 20.8992 42.4372V44.1176C20.8992 44.3546 20.8638 44.5747 20.793 44.7778C20.7222 44.9778 20.5914 45.1517 20.4006 45.2994C20.2098 45.4472 19.9374 45.5626 19.5835 45.6457C19.2296 45.7288 18.771 45.7703 18.2078 45.7703ZM22.2703 51.6332C21.8148 51.6332 21.4193 51.5902 21.0839 51.504C20.7484 51.4178 20.4714 51.2778 20.2529 51.0839C20.0344 50.89 19.8713 50.6315 19.7635 50.3083C19.6589 49.9882 19.6066 49.5928 19.6066 49.1219V47.7923C19.6066 47.2999 19.5035 46.946 19.2973 46.7305C19.0911 46.5151 18.7279 46.4074 18.2078 46.4074V45.7195C18.771 45.7195 19.2296 45.7611 19.5835 45.8442C19.9374 45.9242 20.2098 46.0396 20.4006 46.1904C20.5914 46.3381 20.7222 46.5136 20.793 46.7167C20.8638 46.9167 20.8992 47.1353 20.8992 47.3722V49.0526C20.8992 49.3912 20.9377 49.6697 21.0146 49.8882C21.0946 50.1098 21.2347 50.2729 21.4347 50.3776C21.6348 50.4853 21.9133 50.5391 22.2703 50.5391V51.6332ZM18.2078 46.4074V45.0778H19.4866V46.4074H18.2078ZM26.1239 49.8051C25.5514 49.8051 25.0406 49.6589 24.5912 49.3666C24.145 49.0711 23.7941 48.651 23.5387 48.1063C23.2863 47.5584 23.1601 46.9014 23.1601 46.135C23.1601 45.3687 23.2878 44.7131 23.5433 44.1684C23.8018 43.6237 24.1557 43.2066 24.6051 42.9173C25.0544 42.628 25.5638 42.4834 26.1331 42.4834C26.5732 42.4834 26.9272 42.5573 27.1949 42.705C27.4657 42.8496 27.675 43.0189 27.8228 43.2128C27.9736 43.4067 28.0905 43.5775 28.1736 43.7252H28.2567V40.2121H29.637V49.6666H28.289V48.5633H28.1736C28.0905 48.7141 27.9705 48.8864 27.8135 49.0803C27.6596 49.2742 27.4473 49.4435 27.1764 49.5881C26.9056 49.7328 26.5548 49.8051 26.1239 49.8051ZM26.4286 48.6279C26.8256 48.6279 27.1611 48.5233 27.435 48.314C27.712 48.1016 27.9212 47.8077 28.0628 47.4323C28.2075 47.0568 28.2798 46.6198 28.2798 46.1212C28.2798 45.6287 28.209 45.1979 28.0674 44.8286C27.9259 44.4592 27.7181 44.1715 27.4442 43.9653C27.1703 43.7591 26.8318 43.656 26.4286 43.656C26.0131 43.656 25.6669 43.7637 25.3899 43.9791C25.1129 44.1946 24.9036 44.4885 24.762 44.8609C24.6235 45.2333 24.5543 45.6534 24.5543 46.1212C24.5543 46.5951 24.6251 47.0214 24.7666 47.3999C24.9082 47.7785 25.1175 48.0786 25.3945 48.3001C25.6746 48.5187 26.0193 48.6279 26.4286 48.6279ZM34.594 49.8097C33.9292 49.8097 33.3491 49.6574 32.8536 49.3527C32.3581 49.048 31.9734 48.6218 31.6994 48.0739C31.4255 47.5261 31.2886 46.886 31.2886 46.1535C31.2886 45.4179 31.4255 44.7747 31.6994 44.2238C31.9734 43.6729 32.3581 43.2451 32.8536 42.9404C33.3491 42.6357 33.9292 42.4834 34.594 42.4834C35.2587 42.4834 35.8389 42.6357 36.3344 42.9404C36.8299 43.2451 37.2146 43.6729 37.4885 44.2238C37.7624 44.7747 37.8994 45.4179 37.8994 46.1535C37.8994 46.886 37.7624 47.5261 37.4885 48.0739C37.2146 48.6218 36.8299 49.048 36.3344 49.3527C35.8389 49.6574 35.2587 49.8097 34.594 49.8097ZM34.5986 48.651C35.0295 48.651 35.3865 48.5371 35.6696 48.3094C35.9528 48.0816 36.162 47.7785 36.2975 47.3999C36.4359 47.0214 36.5052 46.6044 36.5052 46.1489C36.5052 45.6965 36.4359 45.281 36.2975 44.9024C36.162 44.5208 35.9528 44.2146 35.6696 43.9837C35.3865 43.7529 35.0295 43.6375 34.5986 43.6375C34.1646 43.6375 33.8046 43.7529 33.5183 43.9837C33.2352 44.2146 33.0244 44.5208 32.8859 44.9024C32.7505 45.281 32.6828 45.6965 32.6828 46.1489C32.6828 46.6044 32.7505 47.0214 32.8859 47.3999C33.0244 47.7785 33.2352 48.0816 33.5183 48.3094C33.8046 48.5371 34.1646 48.651 34.5986 48.651ZM42.7501 42.5757V43.6837H38.8769V42.5757H42.7501ZM39.9156 40.8769H41.2959V47.5846C41.2959 47.8524 41.336 48.0539 41.416 48.1894C41.496 48.3217 41.5991 48.4125 41.7253 48.4617C41.8545 48.5079 41.9946 48.531 42.1454 48.531C42.2562 48.531 42.3531 48.5233 42.4362 48.5079C42.5193 48.4925 42.5839 48.4802 42.6301 48.471L42.8794 49.6112C42.7994 49.642 42.6855 49.6728 42.5378 49.7036C42.39 49.7374 42.2054 49.7559 41.9838 49.759C41.6206 49.7651 41.2821 49.7005 40.9682 49.5651C40.6543 49.4296 40.4003 49.2204 40.2065 48.9372C40.0126 48.6541 39.9156 48.2986 39.9156 47.8708V40.8769ZM47.8086 45.7195V46.4074C47.2885 46.4074 46.9254 46.5151 46.7191 46.7305C46.5129 46.946 46.4098 47.2999 46.4098 47.7923V49.1219C46.4098 49.5928 46.356 49.9882 46.2483 50.3083C46.1436 50.6315 45.9821 50.89 45.7635 51.0839C45.545 51.2778 45.268 51.4178 44.9326 51.504C44.5971 51.5902 44.2016 51.6332 43.7461 51.6332V50.5391C44.1031 50.5391 44.3817 50.4853 44.5817 50.3776C44.7818 50.2729 44.9203 50.1098 44.9972 49.8882C45.0772 49.6697 45.1172 49.3912 45.1172 49.0526V47.3722C45.1172 47.1353 45.1526 46.9167 45.2234 46.7167C45.2942 46.5136 45.425 46.3381 45.6158 46.1904C45.8066 46.0396 46.079 45.9242 46.4329 45.8442C46.7869 45.7611 47.2454 45.7195 47.8086 45.7195ZM43.7461 39.8566C44.2016 39.8566 44.5971 39.8997 44.9326 39.9859C45.268 40.072 45.545 40.2121 45.7635 40.406C45.9821 40.5999 46.1436 40.8584 46.2483 41.1815C46.356 41.5016 46.4098 41.8971 46.4098 42.368V43.6929C46.4098 44.1884 46.5129 44.5439 46.7191 44.7593C46.9254 44.9717 47.2885 45.0778 47.8086 45.0778V45.7703C47.2454 45.7703 46.7869 45.7288 46.4329 45.6457C46.079 45.5626 45.8066 45.4472 45.6158 45.2994C45.425 45.1517 45.2942 44.9778 45.2234 44.7778C45.1526 44.5747 45.1172 44.3546 45.1172 44.1176V42.4372C45.1172 42.0956 45.0772 41.8155 44.9972 41.597C44.9203 41.3754 44.7818 41.2123 44.5817 41.1077C44.3817 41.003 44.1031 40.9507 43.7461 40.9507V39.8566ZM47.8086 45.0778V46.4074H46.5299V45.0778H47.8086ZM52.7217 45.7195V46.4074C52.2016 46.4074 51.8384 46.5151 51.6322 46.7305C51.426 46.946 51.3229 47.2999 51.3229 47.7923V49.1219C51.3229 49.5928 51.2691 49.9882 51.1614 50.3083C51.0567 50.6315 50.8951 50.89 50.6766 51.0839C50.4581 51.2778 50.1811 51.4178 49.8457 51.504C49.5102 51.5902 49.1147 51.6332 48.6592 51.6332V50.5391C49.0162 50.5391 49.2948 50.4853 49.4948 50.3776C49.6949 50.2729 49.8333 50.1098 49.9103 49.8882C49.9903 49.6697 50.0303 49.3912 50.0303 49.0526V47.3722C50.0303 47.1353 50.0657 46.9167 50.1365 46.7167C50.2073 46.5136 50.3381 46.3381 50.5289 46.1904C50.7197 46.0396 50.9921 45.9242 51.346 45.8442C51.6999 45.7611 52.1585 45.7195 52.7217 45.7195ZM48.6592 39.8566C49.1147 39.8566 49.5102 39.8997 49.8457 39.9859C50.1811 40.072 50.4581 40.2121 50.6766 40.406C50.8951 40.5999 51.0567 40.8584 51.1614 41.1815C51.2691 41.5016 51.3229 41.8971 51.3229 42.368V43.6929C51.3229 44.1884 51.426 44.5439 51.6322 44.7593C51.8384 44.9717 52.2016 45.0778 52.7217 45.0778V45.7703C52.1585 45.7703 51.6999 45.7288 51.346 45.6457C50.9921 45.5626 50.7197 45.4472 50.5289 45.2994C50.3381 45.1517 50.2073 44.9778 50.1365 44.7778C50.0657 44.5747 50.0303 44.3546 50.0303 44.1176V42.4372C50.0303 42.0956 49.9903 41.8155 49.9103 41.597C49.8333 41.3754 49.6949 41.2123 49.4948 41.1077C49.2948 41.003 49.0162 40.9507 48.6592 40.9507V39.8566ZM52.7217 45.0778V46.4074H51.443V45.0778H52.7217ZM57.5252 49.6666V48.6325L60.7244 45.3179C61.066 44.9578 61.3476 44.6424 61.5692 44.3715C61.7939 44.0976 61.9616 43.8376 62.0724 43.5913C62.1832 43.3451 62.2386 43.0835 62.2386 42.8065C62.2386 42.4926 62.1647 42.2218 62.017 41.994C61.8693 41.7632 61.6677 41.5863 61.4122 41.4631C61.1568 41.337 60.869 41.2739 60.549 41.2739C60.2104 41.2739 59.915 41.3431 59.6626 41.4816C59.4102 41.6201 59.2163 41.8155 59.0809 42.0679C58.9455 42.3203 58.8778 42.6157 58.8778 42.9543H57.5159C57.5159 42.3787 57.6483 41.8756 57.913 41.4447C58.1776 41.0138 58.5408 40.6799 59.0024 40.4429C59.4641 40.2028 59.9888 40.0828 60.5767 40.0828C61.1706 40.0828 61.6938 40.2013 62.1463 40.4383C62.6018 40.6722 62.9572 40.9923 63.2127 41.3985C63.4681 41.8017 63.5958 42.2572 63.5958 42.765C63.5958 43.1158 63.5297 43.459 63.3973 43.7945C63.2681 44.1299 63.0419 44.5039 62.7187 44.9163C62.3956 45.3256 61.9462 45.8226 61.3707 46.4074L59.4918 48.374V48.4433H63.7482V49.6666H57.5252ZM65.6271 49.6666V40.2121H67.0536V44.727H67.169L71.1345 40.2121H72.9304L69.1171 44.4685L72.9442 49.6666H71.2269L68.1708 45.4425L67.0536 46.7259V49.6666H65.6271Z" fill="#2A282F"/>
<defs>
<clipPath id="clip0_699_7820">
<rect width="16" height="16" fill="white" transform="translate(28.5 12.6666)"/>
</clipPath>
</defs>
</svg>
