<svg width="41" height="40" viewBox="0 0 41 40" fill="none" xmlns="http://www.w3.org/2000/svg">
<rect x="0.5" width="40" height="40" rx="20" fill="#FDCEB0"/>
<circle cx="20.5" cy="20" r="16" fill="#FC9554"/>
<path d="M18.8333 16.6667C18.7007 16.6667 18.5735 16.7194 18.4797 16.8132C18.386 16.907 18.3333 17.0341 18.3333 17.1667C18.3333 17.2994 18.386 17.4265 18.4797 17.5203C18.5735 17.6141 18.7007 17.6667 18.8333 17.6667H23.8333C23.9659 17.6667 24.0931 17.6141 24.1868 17.5203C24.2806 17.4265 24.3333 17.2994 24.3333 17.1667C24.3333 17.0341 24.2806 16.907 24.1868 16.8132C24.0931 16.7194 23.9659 16.6667 23.8333 16.6667H18.8333ZM17.6666 19.8334C17.6666 19.7008 17.7193 19.5736 17.8131 19.4799C17.9068 19.3861 18.034 19.3334 18.1666 19.3334H22.5C22.6326 19.3334 22.7597 19.3861 22.8535 19.4799C22.9473 19.5736 23 19.7008 23 19.8334C23 19.966 22.9473 20.0932 22.8535 20.187C22.7597 20.2807 22.6326 20.3334 22.5 20.3334H18.1666C18.034 20.3334 17.9068 20.2807 17.8131 20.187C17.7193 20.0932 17.6666 19.966 17.6666 19.8334ZM19.5 22.0001C19.3674 22.0001 19.2402 22.0528 19.1464 22.1465C19.0526 22.2403 19 22.3675 19 22.5001C19 22.6327 19.0526 22.7599 19.1464 22.8536C19.2402 22.9474 19.3674 23.0001 19.5 23.0001H23.8333C23.9659 23.0001 24.0931 22.9474 24.1868 22.8536C24.2806 22.7599 24.3333 22.6327 24.3333 22.5001C24.3333 22.3675 24.2806 22.2403 24.1868 22.1465C24.0931 22.0528 23.9659 22.0001 23.8333 22.0001H19.5Z" fill="white"/>
<path d="M14.3334 14.4999C14.3334 13.8559 14.856 13.3333 15.5 13.3333H26.5C27.144 13.3333 27.6667 13.8559 27.6667 14.4999V25.4999C27.6667 25.8093 27.5438 26.1061 27.325 26.3249C27.1062 26.5437 26.8095 26.6666 26.5 26.6666H15.5C15.1906 26.6666 14.8939 26.5437 14.6751 26.3249C14.4563 26.1061 14.3334 25.8093 14.3334 25.4999V14.4999ZM15.5 14.3333C15.4558 14.3333 15.4134 14.3508 15.3822 14.3821C15.3509 14.4133 15.3334 14.4557 15.3334 14.4999V25.4999C15.3334 25.5919 15.408 25.6666 15.5 25.6666H26.5C26.5442 25.6666 26.5866 25.649 26.6179 25.6178C26.6491 25.5865 26.6667 25.5441 26.6667 25.4999V14.4999C26.6667 14.4557 26.6491 14.4133 26.6179 14.3821C26.5866 14.3508 26.5442 14.3333 26.5 14.3333H15.5Z" fill="white"/>
</svg>
