<svg width="41" height="40" viewBox="0 0 41 40" fill="none" xmlns="http://www.w3.org/2000/svg">
<rect x="0.5" width="40" height="40" rx="20" fill="#FDCEB0"/>
<circle cx="20.5" cy="20" r="16" fill="#FC9554"/>
<path d="M18.5 19C18.2789 19 18.067 19.0878 17.9107 19.2441C17.7544 19.4004 17.6666 19.6123 17.6666 19.8333C17.6666 20.0543 17.7544 20.2663 17.9107 20.4226C18.067 20.5789 18.2789 20.6667 18.5 20.6667H18.5066C18.7276 20.6667 18.9396 20.5789 19.0959 20.4226C19.2522 20.2663 19.34 20.0543 19.34 19.8333C19.34 19.6123 19.2522 19.4004 19.0959 19.2441C18.9396 19.0878 18.7276 19 18.5066 19H18.5Z" fill="#FAFAFA"/>
<path d="M18.1667 15.6667C18.1667 15.2689 18.3247 14.8874 18.606 14.6061C18.8873 14.3248 19.2688 14.1667 19.6667 14.1667H25.6667C26.0645 14.1667 26.446 14.3248 26.7273 14.6061C27.0086 14.8874 27.1667 15.2689 27.1667 15.6667V21.6667C27.1667 22.0646 27.0086 22.4461 26.7273 22.7274C26.446 23.0087 26.0645 23.1667 25.6667 23.1667H24.5V24.3334C24.5 24.7312 24.342 25.1128 24.0607 25.3941C23.7794 25.6754 23.3978 25.8334 23 25.8334H17C16.6022 25.8334 16.2206 25.6754 15.9393 25.3941C15.658 25.1128 15.5 24.7312 15.5 24.3334V18.3334C15.5 17.9356 15.658 17.5541 15.9393 17.2728C16.2206 16.9914 16.6022 16.8334 17 16.8334H18.1667V15.6667ZM23.5 18.3334C23.5 18.2008 23.4473 18.0736 23.3536 17.9799C23.2598 17.8861 23.1326 17.8334 23 17.8334H17C16.8674 17.8334 16.7402 17.8861 16.6464 17.9799C16.5527 18.0736 16.5 18.2008 16.5 18.3334V22.9614L20.2787 21.0027C20.5531 20.8604 20.8647 20.8062 21.1711 20.8478C21.4774 20.8893 21.7634 21.0244 21.99 21.2347L23.5 22.6374V18.3334ZM16.5 24.3334C16.5 24.6094 16.724 24.8334 17 24.8334H23C23.1326 24.8334 23.2598 24.7807 23.3536 24.687C23.4473 24.5932 23.5 24.466 23.5 24.3334V24.0021L21.3093 21.9681C21.2339 21.898 21.1387 21.8528 21.0367 21.8389C20.9347 21.8249 20.8308 21.8428 20.7393 21.8901L16.5 24.0881V24.3334ZM19.1667 16.8334H23C23.3978 16.8334 23.7794 16.9914 24.0607 17.2728C24.342 17.5541 24.5 17.9356 24.5 18.3334V22.1667H25.6667C25.7993 22.1667 25.9265 22.1141 26.0202 22.0203C26.114 21.9265 26.1667 21.7994 26.1667 21.6667V15.6667C26.1667 15.5341 26.114 15.407 26.0202 15.3132C25.9265 15.2194 25.7993 15.1667 25.6667 15.1667H19.6667C19.5341 15.1667 19.4069 15.2194 19.3131 15.3132C19.2193 15.407 19.1667 15.5341 19.1667 15.6667V16.8334Z" fill="#FAFAFA"/>
</svg>
