<svg width="26" height="26" viewBox="0 0 26 26" fill="none" xmlns="http://www.w3.org/2000/svg">
<path d="M4.62188 22.4937C4.26771 22.6354 3.9401 22.5956 3.63906 22.3742C3.33802 22.1529 3.1875 21.8563 3.1875 21.4844V6.60938C3.1875 6.37917 3.25391 6.17552 3.38672 5.99844C3.51953 5.82135 3.70104 5.68854 3.93125 5.6L9.5625 3.6875L15.9375 5.91875L20.8781 4.00625C21.2323 3.86458 21.5599 3.90443 21.8609 4.12578C22.162 4.34714 22.3125 4.64375 22.3125 5.01562V13.9672C22.0469 13.5599 21.7326 13.188 21.3695 12.8516C21.0065 12.5151 20.6125 12.2229 20.1875 11.975V6.55625L17 7.77813V11.125C16.6281 11.125 16.2651 11.156 15.9109 11.218C15.5568 11.2799 15.2115 11.3729 14.875 11.4969V7.77813L10.625 6.29063V20.1828L4.62188 22.4937ZM5.3125 19.9438L8.5 18.7219V6.29063L5.3125 7.35313V19.9438ZM17 19.625C17.6021 19.625 18.1023 19.4479 18.5008 19.0938C18.8992 18.7396 19.1073 18.2083 19.125 17.5C19.1427 16.8979 18.9435 16.3932 18.5273 15.9859C18.1112 15.5786 17.6021 15.375 17 15.375C16.3979 15.375 15.8932 15.5786 15.4859 15.9859C15.0786 16.3932 14.875 16.8979 14.875 17.5C14.875 18.1021 15.0786 18.6068 15.4859 19.0141C15.8932 19.4214 16.3979 19.625 17 19.625ZM17 21.75C15.8313 21.75 14.8307 21.3339 13.9984 20.5016C13.1661 19.6693 12.75 18.6688 12.75 17.5C12.75 16.3313 13.1661 15.3307 13.9984 14.4984C14.8307 13.6661 15.8313 13.25 17 13.25C18.1688 13.25 19.1693 13.6661 20.0016 14.4984C20.8339 15.3307 21.25 16.3313 21.25 17.5C21.25 17.9073 21.2013 18.2924 21.1039 18.6555C21.0065 19.0185 20.8604 19.3594 20.6656 19.6781L23.375 22.3875L21.8875 23.875L19.1781 21.1656C18.8594 21.3604 18.5185 21.5065 18.1555 21.6039C17.7924 21.7013 17.4073 21.75 17 21.75Z" fill="#939393"/>
</svg>
