<svg width="21" height="21" viewBox="0 0 21 21" fill="none" xmlns="http://www.w3.org/2000/svg">
<path d="M4.25 12.25H12.25V10.25H4.25V12.25ZM4.25 9.25H16.25V7.25H4.25V9.25ZM4.25 6.25H16.25V4.25H4.25V6.25ZM0.25 20.25V2.25C0.25 1.7 0.445833 1.22917 0.8375 0.8375C1.22917 0.445833 1.7 0.25 2.25 0.25H18.25C18.8 0.25 19.2708 0.445833 19.6625 0.8375C20.0542 1.22917 20.25 1.7 20.25 2.25V14.25C20.25 14.8 20.0542 15.2708 19.6625 15.6625C19.2708 16.0542 18.8 16.25 18.25 16.25H4.25L0.25 20.25ZM3.4 14.25H18.25V2.25H2.25V15.375L3.4 14.25Z" fill="#939393"/>
</svg>
