<svg width="16" height="17" viewBox="0 0 16 17" fill="none" xmlns="http://www.w3.org/2000/svg">
<path d="M8 8.25C6.9 8.25 5.95833 7.85833 5.175 7.075C4.39167 6.29167 4 5.35 4 4.25C4 3.15 4.39167 2.20833 5.175 1.425C5.95833 0.641667 6.9 0.25 8 0.25C9.1 0.25 10.0417 0.641667 10.825 1.425C11.6083 2.20833 12 3.15 12 4.25C12 5.35 11.6083 6.29167 10.825 7.075C10.0417 7.85833 9.1 8.25 8 8.25ZM0 16.25V13.45C0 12.8833 0.145833 12.3625 0.4375 11.8875C0.729167 11.4125 1.11667 11.05 1.6 10.8C2.63333 10.2833 3.68333 9.89583 4.75 9.6375C5.81667 9.37917 6.9 9.25 8 9.25C9.1 9.25 10.1833 9.37917 11.25 9.6375C12.3167 9.89583 13.3667 10.2833 14.4 10.8C14.8833 11.05 15.2708 11.4125 15.5625 11.8875C15.8542 12.3625 16 12.8833 16 13.45V16.25H0ZM2 14.25H14V13.45C14 13.2667 13.9542 13.1 13.8625 12.95C13.7708 12.8 13.65 12.6833 13.5 12.6C12.6 12.15 11.6917 11.8125 10.775 11.5875C9.85833 11.3625 8.93333 11.25 8 11.25C7.06667 11.25 6.14167 11.3625 5.225 11.5875C4.30833 11.8125 3.4 12.15 2.5 12.6C2.35 12.6833 2.22917 12.8 2.1375 12.95C2.04583 13.1 2 13.2667 2 13.45V14.25ZM8 6.25C8.55 6.25 9.02083 6.05417 9.4125 5.6625C9.80417 5.27083 10 4.8 10 4.25C10 3.7 9.80417 3.22917 9.4125 2.8375C9.02083 2.44583 8.55 2.25 8 2.25C7.45 2.25 6.97917 2.44583 6.5875 2.8375C6.19583 3.22917 6 3.7 6 4.25C6 4.8 6.19583 5.27083 6.5875 5.6625C6.97917 6.05417 7.45 6.25 8 6.25Z" fill="#939393"/>
</svg>
