<svg width="105" height="70" viewBox="0 0 105 70" fill="none" xmlns="http://www.w3.org/2000/svg">
<path fill-rule="evenodd" clip-rule="evenodd" d="M105 11.3858C89.2734 17.3417 81.4102 24.3399 81.4102 32.3805C88.1133 32.9761 93.6562 35.0855 98.0391 38.7087C102.422 42.3319 104.613 46.5259 104.613 51.2907C104.613 56.3532 102.486 60.6216 98.2324 64.096C93.9785 67.5703 88.6289 69.3074 82.1836 69.3074C74.9648 69.3074 68.7129 67.0491 63.4277 62.5325C58.1426 58.0159 55.5 52.5315 55.5 46.0792C55.5 26.7222 69.5506 11.5843 97.6524 0.665039L105 11.3858ZM49.5 11.3858C33.6445 17.3417 25.7168 24.3399 25.7168 32.3805C32.5489 32.9761 38.1562 35.0855 42.5391 38.7087C46.9219 42.3319 49.1133 46.5259 49.1133 51.2907C49.1133 56.3532 46.9541 60.6216 42.6357 64.096C38.3174 67.5703 32.9356 69.3074 26.4902 69.3074C19.2714 69.3074 13.0518 67.0491 7.83106 62.5325C2.61033 58.0159 0 52.5315 0 46.0792C0 26.7222 13.9862 11.5843 41.959 0.665039L49.5 11.3858Z" fill="#5584E5"/>
</svg>
