<svg width="23" height="16" viewBox="0 0 23 16" fill="none" xmlns="http://www.w3.org/2000/svg">
<rect x="0.5" y="0.5" width="22" height="15" rx="2" fill="#FEB4C7" stroke="#D9D9D9"/>
<path fill-rule="evenodd" clip-rule="evenodd" d="M3.56479 10.2531H2.62891V6H3.56479V10.2531ZM5.90131 6H4.98573C4.98573 6.78268 4.6407 7.50105 4.03915 7.97103L3.67641 8.25436L5.08191 10.2533H6.23749L4.94425 8.41396C5.55727 7.7773 5.90131 6.92076 5.90131 6ZM7.39404 10.2518H6.51021V6.00074H7.39404V10.2518ZM10.0644 7.31133V7.49944C9.82587 7.32976 9.53802 7.23004 9.22757 7.23004C8.40591 7.23004 7.73982 7.92475 7.73982 8.78172C7.73982 9.63869 8.40591 10.3334 9.22757 10.3334C9.53802 10.3334 9.82587 10.2337 10.0644 10.064V10.252H10.9085V7.31133H10.0644ZM10.0618 8.78181C10.0618 9.19967 9.71932 9.53843 9.29685 9.53843C8.87443 9.53843 8.53196 9.19967 8.53196 8.78181C8.53196 8.36396 8.87443 8.02529 9.29685 8.02529C9.71932 8.02529 10.0618 8.36396 10.0618 8.78181ZM18.9701 7.49944V7.31133H19.8143V10.252H18.9701V10.064C18.7317 10.2337 18.4438 10.3334 18.1333 10.3334C17.3117 10.3334 16.6456 9.63869 16.6456 8.78172C16.6456 7.92475 17.3117 7.23004 18.1333 7.23004C18.4438 7.23004 18.7317 7.32976 18.9701 7.49944ZM18.2026 9.53843C18.6251 9.53843 18.9675 9.19967 18.9675 8.78181C18.9675 8.36396 18.6251 8.02529 18.2026 8.02529C17.7802 8.02529 17.4377 8.36396 17.4377 8.78181C17.4377 9.19967 17.7802 9.53843 18.2026 9.53843ZM15.1455 7.2323C14.8083 7.2323 14.4892 7.34149 14.2758 7.64274V7.31157H13.4353V10.2521H14.2861V8.70673C14.2861 8.25955 14.5736 8.04057 14.9198 8.04057C15.2908 8.04057 15.5041 8.27173 15.5041 8.70064V10.2521H16.3472V8.38203C16.3472 7.6977 15.8256 7.2323 15.1455 7.2323ZM12.2144 7.31129V7.69429C12.3836 7.46455 12.6989 7.31146 13.0417 7.31146V8.16714L13.0371 8.16695L13.0317 8.16676C12.6977 8.16676 12.2163 8.41575 12.2163 8.87895V10.2519H11.3501V7.31129H12.2144ZM20.1807 9.76128C20.1807 9.45611 20.4178 9.20876 20.7104 9.20876C21.0029 9.20876 21.2401 9.45611 21.2401 9.76128C21.2401 10.0664 21.0029 10.3138 20.7104 10.3138C20.4178 10.3138 20.1807 10.0664 20.1807 9.76128Z" fill="#17120F"/>
</svg>
